<?xml version="1.0" encoding="utf-8" ?><svg xmlns="http://www.w3.org/2000/svg" xmlns:xlink="http://www.w3.org/1999/xlink" width="1024" height="1024" viewBox="0 0 1024 1024"><path fill="#45517D" transform="scale(2 2)" d="M164.748 140.82C161.353 128.999 148.857 80.8039 161.935 72.5562C177.186 62.9379 194.907 101.239 214.394 99.3386C218.009 98.9861 221.601 97.405 225.119 96.5021C241.236 92.3668 258.721 92.6701 274.866 96.4054C277.735 97.0693 280.451 98.3735 283.326 98.9963C302.796 103.214 327.459 55.736 339.521 75.2601C345.954 85.6725 338.788 127.78 335.973 140.82C341.436 150.868 345.075 157.549 347.566 169.074C348.352 172.714 349.162 178.658 350.119 181.816L350.25 182.238C352.186 181.561 365.645 176.01 363.64 182.065C362.771 183.089 352.458 185.546 350.25 186.144L350.25 201.852C352.721 201.098 364.722 197.254 363.231 203.078C362.56 203.828 351.456 205.245 349.376 205.63C347.509 215.124 343.897 222.102 341.951 230.272C343.014 231.599 343.367 232.116 344.722 233.153C343.266 222.386 348.267 223.193 355.258 221.21C364.444 218.605 370.229 218.825 379.196 221.785C379.82 215.684 379.285 212.355 379.196 206.432C366.427 198.002 381.936 186.331 388.694 192.881C392.219 196.297 396.569 197.308 400.448 200.593C410.138 208.801 416.233 220.546 417.48 233.153C425.434 230.006 421.663 230.125 425.055 227.596C430.83 223.292 437.335 227.264 437.35 234.048C442.311 234.725 444.774 235.563 440.727 240.373C442.945 249.59 441.187 251.445 440.727 259.735L441.194 259.78C444.728 260.103 471.101 256.687 468.203 261.803C464.446 268.437 457.512 276.806 453.319 282.807C451.658 285.873 448.906 307.828 448.303 312.214L436.085 393.442C431.581 422.679 435.185 422.461 405.01 422.707C402.379 423.324 399.805 424.549 396.994 425.205C335.635 439.386 239.292 438.918 177.464 434.25C157.117 432.714 98.8913 429.467 84.1091 415.234C80.6236 411.837 87.2434 407.189 89.4929 405.67C68.3659 395.746 52.134 374.556 44.9942 352.06C39.5271 334.835 48.3137 313.152 69.5755 316.871C82.5972 319.537 86.2604 334.63 93.5614 343.717C109.019 362.956 138.454 375.792 162.973 368.908L163.278 368.82C161.388 363.781 156.029 362.06 152.249 358.592C118.544 327.673 147.914 271.136 160.588 236.519C156.776 225.341 152.932 219.504 151.146 206.432C136.754 207.186 132.842 202.413 150.119 202.749C149.936 198.477 150.114 192.23 150.119 187.882C146.528 187.071 137.315 187.21 136.971 183.8C138.144 180.838 147.856 183.678 150.119 184.119C152.746 171.086 156.033 150.33 164.748 140.82ZM380.47 418.087C386.341 418.349 394.103 418.097 400.087 418.087C399.837 411.135 400.607 402.337 401.024 395.291L407.045 291.841C401.438 296.514 397.368 279.038 380.47 288.323C380.799 292.489 380.483 298.227 380.474 302.61L380.47 418.087ZM345.773 418.087L361.65 418.087C361.653 406.303 360.886 396.875 360.363 385.279L355.565 300.285C355.307 296.239 354.881 291.315 354.942 287.319C347.999 285.626 336.798 285.953 332.075 292.45C333.408 295.806 334.253 312.218 334.75 316.67C337.549 341.744 339.65 367.144 342.743 392.182C343.666 399.655 344.39 411.286 345.773 418.087ZM163.278 170.065C163.805 168.991 164.519 167.014 164.952 165.856C174.557 140.189 188.473 123.05 213.795 111.005C219.16 98.5685 231.992 101.844 231.784 114.255C232.808 114.582 237.215 114.26 238.64 114.255C235.031 98.0263 255.401 97.6999 261.455 104.828C263.438 107.162 263.021 111.405 262.688 114.255C265.573 113.69 267.272 114 270.137 114.255C270.69 108.725 272.962 104.883 277.775 102.056C226.819 88.9818 170.458 113.329 158.143 167.011C160.578 168.083 161.153 168.335 163.278 170.065ZM160.588 190.95C158.816 190.107 156.196 189.288 154.276 188.705C154.276 193.095 154.606 199.643 154.276 203.738C156.296 204.028 158.603 204.304 160.588 204.677L160.588 190.95ZM430.469 290.867L416.328 418.087C420.206 418.339 427.594 418.411 428.579 413.235C431.717 396.742 433.745 378.508 436.328 361.629L444.896 303.95C445.93 296.928 447.638 289.836 448.38 282.807C444.715 283.547 439.943 285.171 437.243 287.829C435.115 289.925 433.5 292.4 430.469 290.867ZM157.192 170.065C155.974 174.534 154.963 180.254 154.276 184.931C156.613 185.672 158.817 186.413 161.129 187.221C161.29 184.426 162.211 178.586 163.278 176.001L163.278 174.165C161.235 172.624 159.421 171.342 157.192 170.065Z"/><path fill="#B7C7EB" transform="scale(2 2)" d="M308.162 400.82C315.419 395.188 317.771 393.886 324.389 386.962C324.907 394.481 326.569 401.854 327.786 409.232C330.595 426.273 342.638 422.722 356.83 422.713L389.415 422.716C394.008 422.717 400.576 422.485 405.01 422.707C402.379 423.324 399.805 424.549 396.994 425.205C335.635 439.386 239.292 438.918 177.464 434.25C157.117 432.714 98.8913 429.467 84.1091 415.234C80.6236 411.837 87.2434 407.189 89.4929 405.67C118.533 419.22 150.859 417.11 178.611 400.708C181.032 399.277 183.904 397.39 186.375 396.157C188.672 397.358 190.409 398.227 192.821 399.248C181.078 425.374 210.146 431.565 228.404 409.899C229.995 408.021 231.281 406.192 232.766 404.383C242.353 403.499 258.189 404.04 267.791 404.383C270.87 412.565 279.683 417.447 287.039 421.119C301.904 428.539 316.59 416.56 308.162 400.82Z"/><path fill="#ED6B69" transform="scale(2 2)" d="M440.727 259.735L441.194 259.78C444.728 260.103 471.101 256.687 468.203 261.803C464.446 268.437 457.512 276.806 453.319 282.807C452.58 281.595 452.108 280.922 451.62 279.574C450.104 279.218 449.914 279.309 448.379 279.471L447.322 279.574C440.528 280.399 437.116 282.364 432.46 287.319C429.438 284.479 428.557 284.281 424.668 282.807C430.652 276.241 435.449 272.252 438.865 263.502C439.298 261.996 439.92 261.044 440.727 259.735Z"/><path fill="#3E3F5A" transform="scale(2 2)" d="M440.727 259.735L441.194 259.78C444.728 260.103 471.101 256.687 468.203 261.803C464.446 268.437 457.512 276.806 453.319 282.807C452.58 281.595 452.108 280.922 451.62 279.574C450.104 279.218 449.914 279.309 448.379 279.471L447.322 279.574C447.296 273.122 452.482 268.34 453.319 263.502C448.632 263.525 443.448 263.82 438.865 263.502C439.298 261.996 439.92 261.044 440.727 259.735Z"/><path fill="#CD4F50" transform="scale(2 2)" d="M453.319 263.502C455.713 263.134 460.652 263.039 463.26 262.915C460.683 266.485 453.069 276.42 451.62 279.574C450.104 279.218 449.914 279.309 448.379 279.471L447.322 279.574C447.296 273.122 452.482 268.34 453.319 263.502Z"/><path fill="#FEDBCB" transform="scale(2 2)" d="M238.64 114.255C235.031 98.0263 255.401 97.6999 261.455 104.828C263.438 107.162 263.021 111.405 262.688 114.255C265.573 113.69 267.272 114 270.137 114.255C270.69 108.725 272.962 104.883 277.775 102.056C280.563 103.094 283.543 103.823 286.189 105.127C290.871 106.923 296.575 109.656 300.826 112.38C313.921 119.582 330.614 135.822 335.973 150.473C338.418 154.664 339.691 159.399 341.951 163.517C340.429 164.862 339.767 165.432 338.519 167.011C336.479 169.461 326.586 178.47 326.316 179.828C328.611 185.963 340.972 170.093 343.3 167.989C343.615 171.606 345.02 180.384 345.773 184.119C342.702 185.015 325.662 191.677 332.075 196.533C331.578 200.079 332.757 203.899 333.588 207.39C324.867 212.542 327.015 215.622 336.702 210.815C339.276 209.192 341.778 208.192 344.722 207.39C343.65 213.044 340.279 223.388 337.602 228.468C336.595 228.466 312.573 215.408 311.158 220.862C310.615 222.957 313.845 237.303 314.664 240.373C306.684 241.381 298.869 245.614 290.732 245.886C289.047 239.676 286.569 236.421 281.097 233.153C281.935 230.704 281.291 225.469 277.775 228.468C277.487 228.32 276.328 227.465 276 227.231C275.153 224.416 273.128 225.177 271.013 225.986C271.383 223.419 273.743 210.859 272.019 209.643C260.818 201.746 259.816 213.524 258.846 219.22C251.524 218.79 248.324 220.197 243.718 225.986C239.968 226.437 234.039 227.526 232.005 230.915C229.066 235.809 218.061 245.058 223.734 251.238C223.456 253.461 223.724 260.236 223.734 262.915C204.587 260.344 180.626 247.734 168.628 232.881C164.931 228.304 164.364 223.793 160.588 219.22C159.679 217.565 159.863 217.483 158.143 217.726C158.011 216.842 157.471 215.25 157.192 214.338C156.519 211.914 155.995 209.871 155.467 207.39C157.767 207.692 158.948 207.871 161.129 208.558C173.413 212.64 173.475 207.983 160.588 204.677L160.588 190.95C162.792 191.874 169.223 195.48 170.531 195.667C176.163 192.901 162.725 187.917 161.129 187.221C161.29 184.426 162.211 178.586 163.278 176.001L163.278 174.165C164.778 175.309 168.677 178.153 169.743 179.443C171.604 180.489 172.616 182.739 174.719 181.26C176.242 177.988 165.501 171.515 163.278 170.065C163.805 168.991 164.519 167.014 164.952 165.856C174.557 140.189 188.473 123.05 213.795 111.005C219.16 98.5685 231.992 101.844 231.784 114.255C232.808 114.582 237.215 114.26 238.64 114.255Z"/><path fill="#FDC858" transform="scale(2 2)" d="M238.64 114.255C235.031 98.0263 255.401 97.6999 261.455 104.828C263.438 107.162 263.021 111.405 262.688 114.255C260.819 119.572 257.555 136.425 248.708 132.361C242.451 129.486 239.835 120.28 238.64 114.255Z"/><path fill="#FDC858" transform="scale(2 2)" d="M277.775 102.056C280.563 103.094 283.543 103.823 286.189 105.127C286.724 106.269 288.182 109.052 288.501 110.008C288.134 111.669 287.991 111.952 287.247 113.416C283.484 123.016 271.599 130.057 270.137 115.754L270.137 114.255C270.69 108.725 272.962 104.883 277.775 102.056Z"/><path fill="#FAD66C" transform="scale(2 2)" d="M277.775 102.056C280.563 103.094 283.543 103.823 286.189 105.127C286.724 106.269 288.182 109.052 288.501 110.008C285.266 110.29 270.671 112.399 270.137 115.754L270.137 114.255C270.69 108.725 272.962 104.883 277.775 102.056Z"/><path fill="#FAD66C" transform="scale(2 2)" d="M213.795 111.005C219.16 98.5685 231.992 101.844 231.784 114.255L231.784 114.725C231.112 114.319 221.84 115.053 220.032 114.334C218.122 113.574 215.9 111.72 214.177 111.831L213.795 112.38L213.795 111.005Z"/><path fill="#FDC858" transform="scale(2 2)" d="M213.795 112.38L214.177 111.831C215.9 111.72 218.122 113.574 220.032 114.334C221.84 115.053 231.112 114.319 231.784 114.725C229.018 131.793 216.791 121.183 213.795 112.38Z"/><path fill="#FCAAA7" transform="scale(2 2)" d="M336.702 210.815C339.276 209.192 341.778 208.192 344.722 207.39C343.65 213.044 340.279 223.388 337.602 228.468C336.482 223.205 336.905 216.172 336.702 210.815Z"/><path fill="#FEFEFE" transform="scale(2 2)" d="M286.189 105.127C290.871 106.923 296.575 109.656 300.826 112.38C298.595 113.681 290.125 113.399 287.247 113.416C287.991 111.952 288.134 111.669 288.501 110.008C288.182 109.052 286.724 106.269 286.189 105.127Z"/><path fill="#FCAAA7" transform="scale(2 2)" d="M335.973 150.473C338.418 154.664 339.691 159.399 341.951 163.517C340.429 164.862 339.767 165.432 338.519 167.011C337.728 164.658 335.743 152.797 335.973 150.473Z"/><path fill="#FEFEFE" transform="scale(2 2)" d="M155.467 207.39C157.767 207.692 158.948 207.871 161.129 208.558L161.129 210.815C160.025 212.547 159.353 213.932 157.192 214.338C156.519 211.914 155.995 209.871 155.467 207.39Z"/><path fill="#FEE7E4" transform="scale(2 2)" d="M161.129 210.815C161.833 212.836 163.944 218.724 160.588 219.22C159.679 217.565 159.863 217.483 158.143 217.726C158.011 216.842 157.471 215.25 157.192 214.338C159.353 213.932 160.025 212.547 161.129 210.815Z"/><path fill="#7DC2E6" transform="scale(2 2)" d="M188.48 163.517C186.368 162.58 185.728 161.961 186.405 159.559C195.779 126.307 237.339 147.326 231.784 163.134C232.49 198.288 184.421 191.1 188.48 163.517Z"/><path fill="#45517D" transform="scale(2 2)" d="M188.48 163.517C186.368 162.58 185.728 161.961 186.405 159.559C195.779 126.307 237.339 147.326 231.784 163.134C228.837 163.686 228.074 162.258 227.274 159.574C223.145 145.719 205.276 141.703 195.539 152.308C192.779 155.314 190.819 162.24 188.48 163.517Z"/><path fill="#7DC2E6" transform="scale(2 2)" d="M271.013 163.134C268.433 161.152 269.672 158.798 270.785 156.209C279.774 135.295 310.988 138.45 315.678 160.74C315.974 162.145 314.926 162.912 313.921 163.517C315.835 188.115 282.726 196.363 272.597 174.185C271.531 171.851 270.018 165.536 271.013 163.134Z"/><path fill="#45517D" transform="scale(2 2)" d="M271.013 163.134C268.433 161.152 269.672 158.798 270.785 156.209C279.774 135.295 310.988 138.45 315.678 160.74C315.974 162.145 314.926 162.912 313.921 163.517C310.039 163.012 310.045 153.698 301.942 148.928C292.534 143.39 279.647 147.054 275.052 157.15C274.037 159.378 273.635 162.601 271.013 163.134Z"/><path fill="#45517D" transform="scale(2 2)" d="M246.641 169.273C250.016 169.3 259.289 167.946 261.347 171.023C265.013 176.506 257.189 182.437 253.463 184.931C253.455 190.748 253.203 192.454 258.846 195.309C263.914 192.154 262.24 185.277 266.072 185.36C269.944 187.493 264.409 201.659 254.855 197.616C253.822 196.94 252.994 196.134 252.076 195.309C240.837 204.922 230.552 186.195 238.019 185.171C240.735 186.225 241.678 199.706 248.254 193.027C250.027 191.226 249.509 187.308 249.414 184.931C243.659 181.844 234.729 170.208 246.641 169.273Z"/><path fill="#FE8380" transform="scale(2 2)" d="M166.096 306.035C172.336 312.674 177.011 316.112 183.443 321.852L183.814 322C187.313 323.419 190.56 325.684 194.019 327.205C206.034 332.489 212.248 332.724 224.244 334.546L224.244 343.347L224.244 348.811L287.247 348.811L287.247 334.546C297.325 332.253 303.909 331.169 313.921 326.698C315.033 330.318 315.48 333.923 316.065 337.658L318.653 354.101C319.136 357.288 319.764 362.259 320.531 365.284C321.586 370.446 322.035 376.132 323.166 381.044C318.89 386.641 312.45 394.32 305.32 396.157C302.631 393.805 300.616 392.047 297.576 390.1C284.914 383.711 268.171 382.758 266.098 400.002C257.149 399.591 242.988 399.414 234.082 400.002C233.94 382.017 211.893 381.864 202.007 390.1C198.98 391.924 197.872 393.279 195.994 396.157C171.86 384.241 162.575 370.939 165.681 342.515C166.214 337.637 167.533 330.867 166.174 326.235L166.096 325.978L166.096 325.978C168.744 319.176 167.161 312.688 166.096 306.035Z"/><path fill="#ED6B69" transform="scale(2 2)" d="M166.096 325.978C173.965 325.737 174.549 343.323 176.254 349.891C180.967 368.052 188.073 378.523 202.007 390.1C198.98 391.924 197.872 393.279 195.994 396.157C171.86 384.241 162.575 370.939 165.681 342.515C166.214 337.637 167.533 330.867 166.174 326.235L166.096 325.978Z"/><path fill="#ED6B69" transform="scale(2 2)" d="M224.244 348.811L287.247 348.811C287.358 350.199 287.28 351.685 287.247 353.085C285.618 355.677 283.887 356.295 280.978 356.43C276.198 356.653 231.204 356.99 228.929 355.894C226.357 354.655 225.001 351.392 224.244 348.811Z"/><path fill="#ED6B69" transform="scale(2 2)" d="M320.531 365.284C321.586 370.446 322.035 376.132 323.166 381.044C318.89 386.641 312.45 394.32 305.32 396.157C302.631 393.805 300.616 392.047 297.576 390.1C303.349 384.934 307.711 381.873 312.811 375.759C315.018 373.114 318.703 367.099 320.531 365.284Z"/><path fill="#ED6B69" transform="scale(2 2)" d="M183.443 321.852L183.814 322C187.313 323.419 190.56 325.684 194.019 327.205C206.034 332.489 212.248 332.724 224.244 334.546L224.244 343.347C215.253 342.532 184.329 327.625 183.443 321.852Z"/><path fill="#FCAAA7" transform="scale(2 2)" d="M158.143 217.726C159.863 217.483 159.679 217.565 160.588 219.22C164.364 223.793 164.931 228.304 168.628 232.881C180.626 247.734 204.587 260.344 223.734 262.915C223.724 260.236 223.456 253.461 223.734 251.238C223.924 255.366 223.755 260.506 223.745 264.702L223.734 289.088C224.004 291.374 223.903 293.174 223.734 295.451C215.772 292.209 209.427 287.901 203.505 281.588C201.926 280.187 197.83 275.368 196.014 278.005C193.324 281.912 216.123 297.346 220.965 298.882C230.027 301.757 239.105 298.841 244.19 309.243C247.672 316.038 244.728 324.701 237.624 327.725C218.308 335.947 183.618 321.206 171.452 305.2C166.856 299.154 163.311 300.567 166.096 306.035C167.161 312.688 168.744 319.176 166.096 325.978C160.204 330.584 160.605 352.44 161.129 359.686C123.784 336.148 149.025 277.335 162.089 245.181C163.137 242.603 164.363 239.573 165.138 236.908L165.249 236.519C163.694 230.768 160.067 224.464 158.143 217.726Z"/><path fill="#ED6B69" transform="scale(2 2)" d="M203.505 281.588C206.667 282.054 217.723 287.658 223.734 289.088C224.004 291.374 223.903 293.174 223.734 295.451C215.772 292.209 209.427 287.901 203.505 281.588Z"/><path fill="#FDC858" transform="scale(2 2)" d="M56.7468 323.559C73.7664 312.674 81.0229 334.863 88.549 344.834C106.032 367.999 136.358 380.347 164.748 373.084C166.723 377.346 167.726 379.971 170.964 383.429C174.163 388.004 177.089 390.494 181.774 393.517C181.047 394.124 180.577 394.437 179.795 394.926C136.844 421.805 83.3802 413.02 57.1097 368.303C50.0995 356.371 41.0744 332.949 56.7468 323.559Z"/><path fill="#F69D36" transform="scale(2 2)" d="M181.774 393.517C181.047 394.124 180.577 394.437 179.795 394.926C136.844 421.805 83.3802 413.02 57.1097 368.303C50.0995 356.371 41.0744 332.949 56.7468 323.559L56.6722 323.827C52.9639 336.791 53.6044 339.302 60.9271 352.49C83.5264 393.192 130.723 400.734 170.964 383.429C174.163 388.004 177.089 390.494 181.774 393.517Z"/><path fill="#7DC2E6" transform="scale(2 2)" d="M228.02 251.238C230.162 251.101 231.95 251.057 234.082 251.238L267.825 251.243C273.135 251.245 279.765 251.456 284.916 251.238C284.925 264.745 285.125 278.246 284.501 291.737C284.39 294.126 285.285 296.627 282.545 297.107L280.157 297.107C267.68 297.26 258.417 303.342 258.846 317.263L250.297 317.263C250.362 316.275 250.363 315.78 250.297 314.792C249.33 308.422 247.193 303.933 242.236 299.889C237.353 296.7 233.602 296.265 228.02 296.289L228.02 251.238Z"/><path fill="#31A8E6" transform="scale(2 2)" d="M228.02 251.238C230.162 251.101 231.95 251.057 234.082 251.238C234.094 267.844 239.197 283.751 242.236 299.889C237.353 296.7 233.602 296.265 228.02 296.289L228.02 251.238Z"/><path fill="#FEFEFE" transform="scale(2 2)" d="M280.157 297.107C278.147 291.826 275.782 257.539 280.775 254.724C284.945 255.311 283.595 292.808 282.545 297.107L280.157 297.107Z"/><path fill="#FEFEFE" transform="scale(2 2)" d="M270.137 257.031C271.838 257.517 272.36 257.935 273.504 259.283C274.557 263.552 275.181 271.656 271.013 274.37C265.553 273.427 265.379 259.926 270.137 257.031Z"/><path fill="#FE8380" transform="scale(2 2)" d="M354.942 287.319C363.027 290.614 362.975 292.351 369.361 296.289C372.252 293.772 377.211 290.213 380.47 288.323C380.799 292.489 380.483 298.227 380.474 302.61L380.47 418.087C374.221 418.069 367.881 418.211 361.65 418.087C361.653 406.303 360.886 396.875 360.363 385.279L355.565 300.285C355.307 296.239 354.881 291.315 354.942 287.319Z"/><path fill="#FE8380" transform="scale(2 2)" d="M407.045 291.841C412.437 284.396 424.452 283.666 430.469 290.867L416.328 418.087L400.087 418.087C399.837 411.135 400.607 402.337 401.024 395.291L407.045 291.841Z"/><path fill="#ED6B69" transform="scale(2 2)" d="M312.538 285.344C322.914 285.128 328.103 293.632 332.075 292.45C333.408 295.806 334.253 312.218 334.75 316.67C337.549 341.744 339.65 367.144 342.743 392.182C343.666 399.655 344.39 411.286 345.773 418.087C330.987 418.061 333.428 415.258 331.32 402.614L312.538 285.344Z"/><path fill="#FEEA8A" transform="scale(2 2)" d="M379.947 258.485C381.315 261.692 382.852 263.101 385.872 264.599C388.353 264.189 390.692 263.826 393.191 263.502C391.586 278.45 389.78 278.928 378.907 284.984C375.37 286.954 372.445 289.223 369.361 291.841C363.589 286.71 360.506 285.061 353.063 282.807C348.943 282.165 347.36 282.021 343.3 282.807C337.419 283.765 335.213 284.884 330.368 288.323C322.109 281.646 313.485 279.28 306.961 268.126C303.906 266.064 302.001 263.805 299.481 261.132C304.476 262.254 309.725 262.157 314.93 263.596C341.331 270.897 354.615 278.1 379.947 258.485Z"/><path fill="#FDC858" transform="scale(2 2)" d="M385.872 264.599C388.353 264.189 390.692 263.826 393.191 263.502C391.586 278.45 389.78 278.928 378.907 284.984C375.37 286.954 372.445 289.223 369.361 291.841C363.589 286.71 360.506 285.061 353.063 282.807C355.621 281.97 358.295 281.422 360.868 280.541C371.141 277.024 376.942 269.959 385.872 264.599Z"/><path fill="#FDC858" transform="scale(2 2)" d="M306.961 268.126C309.31 267.958 327.064 277.73 330.187 279.105C333.139 280.443 341.45 281.768 343.3 282.807C337.419 283.765 335.213 284.884 330.368 288.323C322.109 281.646 313.485 279.28 306.961 268.126Z"/><path fill="#ED6B69" transform="scale(2 2)" d="M161.129 81.0079C168.285 62.8194 192.146 98.7523 206.863 103.071C203.518 104.476 199.918 106.532 196.733 108.313C194.67 109.706 192.666 111.061 190.55 112.38C185.323 117.41 178.681 121.03 174.119 127.17C172.483 129.372 169.531 133.12 167.579 134.883C163.643 124.209 158.549 91.8408 161.129 81.0079Z"/><path fill="#FCAAA7" transform="scale(2 2)" d="M161.129 81.0079C168.285 62.8194 192.146 98.7523 206.863 103.071C203.518 104.476 199.918 106.532 196.733 108.313C194.67 109.706 192.666 111.061 190.55 112.38C188.576 110.544 172.176 90.918 170.964 88.6044C168.793 86.4645 163.659 82.537 161.129 81.0079Z"/><path fill="#FE8380" transform="scale(2 2)" d="M170.964 88.6044C180.64 92.107 189.498 104.14 196.733 108.313C194.67 109.706 192.666 111.061 190.55 112.38C188.576 110.544 172.176 90.918 170.964 88.6044Z"/><path fill="#FEDBCB" transform="scale(2 2)" d="M263.943 313.387C265.849 297.529 281.765 302.351 292.121 299.648C298.872 297.885 303.05 294.285 308.812 290.867C309.573 296.335 310.9 305.983 312.538 311.087C312.475 315.175 312.865 317.868 313.921 321.852C300.742 327.972 286.807 332.93 272.295 328.148C265.766 325.997 262.447 320.066 263.943 313.387Z"/><path fill="#ECB79E" transform="scale(2 2)" d="M312.538 311.087C312.475 315.175 312.865 317.868 313.921 321.852C300.742 327.972 286.807 332.93 272.295 328.148C265.766 325.997 262.447 320.066 263.943 313.387C263.889 315.214 265.077 316.27 266.663 317.088C279.049 323.483 291.977 321.263 303.954 315.44C306.94 313.988 309.266 311.969 312.538 311.087Z"/><path fill="#ED6B69" transform="scale(2 2)" d="M297.576 100.615C297.456 100.825 305.25 94.9511 305.85 94.6286C312.174 91.2326 332.797 62.8229 336.702 81.0079C341.234 93.7168 332.617 121.596 333.588 136.284C322.1 125.073 321.068 119.813 304.753 109.256C302.53 107.833 299.812 106.64 297.576 105.127C295.79 104.294 294.404 103.753 292.549 103.071C294.348 102.099 295.68 101.355 297.576 100.615Z"/><path fill="#FCAAA7" transform="scale(2 2)" d="M297.576 100.615C297.456 100.825 305.25 94.9511 305.85 94.6286C312.174 91.2326 332.797 62.8229 336.702 81.0079C330.602 86.6676 323.21 91.9867 316.945 97.6287C312.863 101.304 308.869 105.801 304.753 109.256C302.53 107.833 299.812 106.64 297.576 105.127C295.79 104.294 294.404 103.753 292.549 103.071C294.348 102.099 295.68 101.355 297.576 100.615Z"/><path fill="#FCAAA7" transform="scale(2 2)" d="M292.549 103.071C294.348 102.099 295.68 101.355 297.576 100.615L297.532 100.971C296.704 101.549 295.909 102.794 295.418 103.668C296.11 103.955 297.163 104.281 297.566 104.835L297.576 105.127C295.79 104.294 294.404 103.753 292.549 103.071Z"/><path fill="#FEEA8A" transform="scale(2 2)" d="M314.664 223.552C320.708 225.356 338.89 230.817 341.827 236.328C353.927 259.029 357.502 250.342 379.196 254.469C374.273 258.949 368.056 262.711 361.65 264.599C333.36 277.194 319.69 251.424 315.784 227.231C315.414 226.007 315.052 224.768 314.664 223.552Z"/><path fill="#FDC858" transform="scale(2 2)" d="M315.784 227.231C316.417 227.333 316.797 227.224 317.109 227.85C327.66 248.958 338.22 257.657 361.65 264.599C333.36 277.194 319.69 251.424 315.784 227.231Z"/><path fill="#FEEA8A" transform="scale(2 2)" d="M423.519 234.048L423.607 234.55C425.64 245.623 435.842 236.807 437.874 238.142C437.789 238.903 436.833 239.843 436.855 239.92C439.087 247.665 438.958 253.242 435.772 261.132C433.77 266.884 425.608 279.013 420.258 281.263C413.513 284.098 411.848 281.516 405.01 288.323C401.763 285.606 399.938 284.459 396.042 282.807C394.286 282.359 392.223 281.971 390.431 281.588C391.323 280.744 392.345 279.561 393.191 278.637C410.913 274.273 418.583 254.764 417.48 237.937C419.5 236.551 421.443 235.337 423.519 234.048Z"/><path fill="#FDC858" transform="scale(2 2)" d="M423.519 259.283C424.246 260.835 424.944 262.942 425.539 264.599C428.17 263.565 433.133 261.395 435.772 261.132C433.77 266.884 425.608 279.013 420.258 281.263C413.513 284.098 411.848 281.516 405.01 288.323C401.763 285.606 399.938 284.459 396.042 282.807C407.133 276.357 415.966 270.033 423.519 259.283Z"/><path fill="#FEEA8A" transform="scale(2 2)" d="M357.932 224.705C378.472 217.789 403.47 238.187 402.019 258.485C398.813 259.562 399.548 260.153 395.207 261.132C393.081 257.043 397.77 253.97 390.431 249.644C390.054 250.018 389.146 250.873 388.835 251.238L388.951 251.641C388.092 252.136 380.975 253.157 385.018 251.238L383.417 250.021C382.288 250.544 381.504 251.097 380.47 251.774C380.413 251.744 380.356 251.714 380.299 251.683L380.012 251.538C369.597 246.192 366.732 255.673 351.328 238.726C350.671 238.129 349.958 237.216 349.376 236.519C350.665 236.704 352.378 236.569 353.714 236.519C359.368 234.99 361.681 229.388 357.932 224.705Z"/><path fill="#FDC858" transform="scale(2 2)" d="M349.376 236.519C350.665 236.704 352.378 236.569 353.714 236.519C354.167 237.111 354.385 237.418 354.942 237.937C363.657 235.465 379.538 242.026 385.018 249.644L383.417 250.021C382.288 250.544 381.504 251.097 380.47 251.774C380.413 251.744 380.356 251.714 380.299 251.683L380.012 251.538C369.597 246.192 366.732 255.673 351.328 238.726C350.671 238.129 349.958 237.216 349.376 236.519Z"/><path fill="#474847" transform="scale(2 2)" d="M385.018 249.644C387.234 249.091 388.246 249.278 390.431 249.644C390.054 250.018 389.146 250.873 388.835 251.238L388.951 251.641C388.092 252.136 380.975 253.157 385.018 251.238L383.417 250.021L385.018 249.644Z"/><path fill="#B7C7EB" transform="scale(2 2)" d="M385.018 251.238C386.318 250.989 387.508 251.15 388.835 251.238L388.951 251.641C388.092 252.136 380.975 253.157 385.018 251.238Z"/><path fill="#FEEA8A" transform="scale(2 2)" d="M391.655 199.016C410.404 208.195 420.653 240.165 410.896 257.886C408.704 257.635 407.301 257.176 405.537 258.485C405.656 249.436 402.91 244.165 398.355 236.519C394.504 232.155 388.255 225.313 382.521 223.552C382.608 217.496 382.556 212.482 382.06 206.432C383.85 206.393 384.953 206.217 386.629 205.63C389.922 203.299 390.09 202.571 391.655 199.016Z"/><path fill="#FDC858" transform="scale(2 2)" d="M386.629 205.63C391.341 211.648 399.772 228.779 398.355 236.519C394.504 232.155 388.255 225.313 382.521 223.552C382.608 217.496 382.556 212.482 382.06 206.432C383.85 206.393 384.953 206.217 386.629 205.63Z"/><path fill="#FDC858" transform="scale(2 2)" d="M261.908 222.806C262.388 220.335 263.67 206.728 268.549 211.508C269.595 215.039 266.021 224.901 268.235 227.224C271.552 230.704 272.594 230.603 276 227.231C276.328 227.465 277.487 228.32 277.775 228.468C277.668 229.904 277.734 231.229 277.775 232.664C275.21 232.686 270.549 232.343 270.315 235.682C271.984 239.735 281.537 229.686 287.247 247.425C280.499 247.323 271.304 247.18 264.705 247.425C265.822 231.187 245.714 233.658 244.961 239.813C246.811 243.916 259.183 230.39 261.908 247.425L226.059 247.425C227.634 240.716 231.37 239.441 234.293 234.489C237.477 229.093 244.413 231.127 246.06 228.991C251.36 222.117 253.873 222.66 261.908 222.806Z"/><path fill="#45517D" transform="scale(2 2)" d="M268.439 238.726C270.944 239.107 278.859 243.169 274.75 245.886C272.658 245.324 264.42 241.046 268.439 238.726Z"/><path fill="#45517D" transform="scale(2 2)" d="M263.943 227.231C269.976 227.013 261.265 233.233 260.194 234.048C253.603 233.621 261.591 228.196 263.943 227.231Z"/><path fill="#45517D" transform="scale(2 2)" d="M236.095 236.519C239.286 236.734 242.754 242.162 240.726 245.016C237.35 245.163 234.566 239.398 236.095 236.519Z"/><path fill="#FCAAA7" transform="scale(2 2)" d="M314.664 240.373C316.99 246.544 318.621 251.228 322.033 257.031C323.389 258.302 324.361 259.567 325.37 261.132C325.041 261.808 324.849 262.329 324.389 262.915C320.529 261.026 315.54 259.914 311.31 259.283C311.789 258.654 313.162 257.222 313.921 257.031C315.452 251.603 310.206 253.469 306.961 258.485C284.254 254.355 295.346 262.717 304.753 272.107C306.518 273.804 307.803 273.886 306.455 275.995C306.547 278.726 307.677 282.738 308.162 285.344C301.326 290.01 296.899 294.688 288.501 296.289C288.482 292.589 288.288 284.895 288.991 281.588L289.018 262.755C289.028 255.761 290.975 250.536 290.732 245.886C298.869 245.614 306.684 241.381 314.664 240.373Z"/><path fill="#FE8380" transform="scale(2 2)" d="M304.753 272.107C306.518 273.804 307.803 273.886 306.455 275.995C306.547 278.726 307.677 282.738 308.162 285.344C301.326 290.01 296.899 294.688 288.501 296.289C288.482 292.589 288.288 284.895 288.991 281.588C291.391 281.249 302.59 273.83 304.753 272.107Z"/><path fill="#FCAAA7" transform="scale(2 2)" d="M313.921 257.031L314.209 257.396C315.435 257.28 321.512 257.205 322.033 257.031C323.389 258.302 324.361 259.567 325.37 261.132C325.041 261.808 324.849 262.329 324.389 262.915C320.529 261.026 315.54 259.914 311.31 259.283C311.789 258.654 313.162 257.222 313.921 257.031Z"/><path fill="#4F7BD1" transform="scale(2 2)" d="M250.297 314.792C250.363 315.78 250.362 316.275 250.297 317.263L258.846 317.263C261.035 330.437 270.058 334.016 282.545 334.546L282.545 344.677L240.726 344.677L228.02 344.677C228.071 340.813 228.253 338.417 228.02 334.546C233.055 334.211 233.795 334.069 238.64 332.56C246.248 329.392 249.844 322.727 250.297 314.792Z"/><path fill="#3E6DB9" transform="scale(2 2)" d="M228.02 334.546C233.055 334.211 233.795 334.069 238.64 332.56C239.226 336.052 240.327 341.311 240.726 344.677L228.02 344.677C228.071 340.813 228.253 338.417 228.02 334.546Z"/><path fill="#FEDBCB" transform="scale(2 2)" d="M195.994 403.447C204.342 384.351 233.752 385.482 229.208 400.82C219.497 421.755 185.592 426.162 195.994 403.447Z"/><path fill="#ECB79E" transform="scale(2 2)" d="M195.994 403.447C200.77 407.866 215.544 406.954 221.079 404.409C223.574 403.261 226.586 401.426 229.208 400.82C219.497 421.755 185.592 426.162 195.994 403.447Z"/><path fill="#FEDBCB" transform="scale(2 2)" d="M272.044 403.447C262.783 387.664 294.306 384.094 304.753 403.447C309.743 412.343 302.136 421.711 292.562 418.651C285.553 416.411 275.642 409.986 272.044 403.447Z"/><path fill="#ECB79E" transform="scale(2 2)" d="M272.044 403.447C278.723 403.905 298.464 417.957 304.753 403.447C309.743 412.343 302.136 421.711 292.562 418.651C285.553 416.411 275.642 409.986 272.044 403.447Z"/><path fill="#FCAAA7" transform="scale(2 2)" d="M332.075 196.533L332.289 196.41C336.418 194 341.053 190.012 345.773 188.705C346.194 192.542 345.642 198.52 345.773 202.749C341.349 204.167 337.747 205.966 333.588 207.39C332.757 203.899 331.578 200.079 332.075 196.533Z"/><path fill="#FDC858" transform="scale(2 2)" d="M395.207 261.132C399.548 260.153 398.813 259.562 402.019 258.485C402.316 264.225 401.219 271.922 395.207 274.37C396.247 268.938 396.885 266.558 395.207 261.132Z"/><path fill="#FDC858" transform="scale(2 2)" d="M405.537 258.485C407.301 257.176 408.704 257.635 410.896 257.886C409.558 260.671 407.08 264.835 405.01 267.218C405.164 264.348 405.431 261.326 405.537 258.485Z"/><path fill="#E2E5F4" transform="scale(2 2)" d="M353.063 222.806C357.916 224.796 352.584 224.453 351.328 224.705C350.544 224.974 349.725 225.415 348.994 225.195L348.986 224.815C350.482 223.411 351.044 223.284 353.063 222.806Z"/><path fill="#ECB79E" transform="scale(2 2)" d="M325.37 261.132C326.682 262.008 329.251 263.621 330.368 264.599C328.525 264.119 326.152 263.553 324.389 262.915C324.849 262.329 325.041 261.808 325.37 261.132Z"/><path fill="#CD4F50" transform="scale(2 2)" d="M310.479 278.637C311.661 279.399 313.897 280.596 314.664 281.588C311.356 282.386 310.997 281.85 310.479 278.637Z"/><path fill="#FEFEFE" transform="scale(2 2)" d="M382.521 192.746C383.744 192.827 388.636 193.633 385.018 193.972C383.367 194.077 378.592 194.522 382.521 192.746Z"/><path fill="#E2E5F4" transform="scale(2 2)" d="M350.25 243.381C351.557 243.828 354.853 246.514 356.011 247.425C353.3 247.618 351.642 245.363 350.25 243.381Z"/><path fill="#6E6C98" transform="scale(2 2)" d="M345.773 237.937C347.202 238.267 348.771 240.282 349.376 241.558C347.942 240.781 346.689 239.259 345.773 237.937Z"/><path fill="#45517D" transform="scale(2 2)" d="M428.126 156.766C434.03 156.535 435.441 164.586 438.658 168.336C441.569 171.73 452.047 173.985 450.505 179.592C449.825 182.065 443.37 184.372 441.287 185.774C435.55 189.464 435.358 197.579 429.88 199.832C422.779 200.152 423.638 190.492 418.515 186.729C415.716 184.673 409.044 182.151 407.533 179.717C404.426 174.709 417.589 171.122 419.733 168.3C423.018 164.512 423.991 158.999 428.126 156.766Z"/><path fill="#FAD66C" transform="scale(2 2)" d="M410.896 178.646C414.662 174.608 418.062 174.138 421.787 170.652C425.046 167.602 426.24 163.489 429.88 160.283C438.689 176.501 438.721 169.803 447.322 178.646L447.04 178.826C441.522 182.265 438.524 182.042 434.118 187.882C432.428 190.929 431.015 193.725 428.927 196.533C426.877 193.641 425.644 190.346 423.519 187.221C420.624 182.768 415.773 180.535 410.896 178.646Z"/><path fill="#FDC858" transform="scale(2 2)" d="M423.519 187.221C426.984 186.689 430.71 187.157 434.118 187.882C432.428 190.929 431.015 193.725 428.927 196.533C426.877 193.641 425.644 190.346 423.519 187.221Z"/><path fill="#45517D" transform="scale(2 2)" d="M117.934 208.558C122.156 208.034 120.634 217.598 128.091 222.947C130.777 224.874 137.798 227.689 130.16 229.667C122.407 231.675 119.605 235.234 115.553 241.558C110.913 242.361 112.854 231.297 103.553 226.205C94.7821 221.403 106.522 220.056 110.375 217.309C114.328 214.492 114.924 211.196 117.934 208.558Z"/><path fill="#FAD66C" transform="scale(2 2)" d="M106.179 223.552C111.511 221.36 113.945 219.254 117.934 215.212C120.081 218.733 120.512 220.262 123.407 223.552C125.023 224.853 125.932 225.509 127.687 226.611C124.79 227.814 123.292 228.488 120.732 230.272L119.212 231.349C117.454 232.855 116.814 233.849 115.553 235.733C114.426 233.258 113.298 230.907 112.098 228.468C110.055 226.8 108.311 225.233 106.179 223.552Z"/><path fill="#FEEA8A" transform="scale(2 2)" d="M112.098 228.468L112.409 228.221C113.841 229.489 116.501 231.425 118.576 230.72L119.212 231.349C117.454 232.855 116.814 233.849 115.553 235.733C114.426 233.258 113.298 230.907 112.098 228.468Z"/></svg>