<?xml version="1.0" encoding="utf-8" ?><svg xmlns="http://www.w3.org/2000/svg" xmlns:xlink="http://www.w3.org/1999/xlink" width="1024" height="512" viewBox="0 0 1024 512"><path fill="#FEE89C" d="M534.316 137.303C537.002 132.232 548.904 109.085 555.213 110.644C563.615 117.4 572.208 163.182 576.319 175.624C578.149 174.564 579.596 173.816 581.506 172.903L581.325 173.067L582.92 172.714L583.078 172.513C582.35 173.901 577.958 176.016 576.319 176.9C576.914 180.924 577.641 184.546 578.466 188.532L578.466 189.99C579.181 192.577 579.921 195.108 580.687 197.678C582.991 198.139 585.817 198.499 587.753 199.726L587.438 200.167C584.983 200.311 583.066 199.768 580.687 199.245C585.608 218.557 614.186 260.766 598.884 277.591C606.02 289.611 613.608 328.177 613.45 341.293C636.591 338.049 637.062 322.184 661.196 315.543C663.65 306.355 665.073 296.703 666.581 287.304C642.861 268.284 676.205 225.977 683.066 203.813C681.219 204.193 676.592 205.52 675.382 204.89L675.157 205.36L674.8 205.278C673.394 205.435 683.063 202.37 683.066 202.369C683.989 198.531 684.443 195.14 684.996 191.227C681.615 190.698 678.206 190.719 674.371 190.11L674.25 189.788C678.186 189.296 681.048 189.659 684.996 189.99C686.341 185.122 686.852 181.839 687.598 176.9C678.689 171.947 676.263 169.698 687.598 175.624C694.769 156.515 697.072 130.468 709.292 113.453C714.111 106.744 730.359 135.509 733.005 139.022C754.66 137.185 758.758 135.279 781.419 139.022C783.977 132.138 794.147 113.341 800.862 111.199C809.515 108.439 822.428 166.287 825.43 174.157L827.616 173.148C829.311 172.37 831.566 170.948 832.97 171.469L832.886 170.932L833.446 170.792L833.781 171.02L833.419 170.894L833.256 171.447C831.293 172.874 827.703 174.502 825.43 175.624C826.983 180.181 828.158 183.874 829.388 188.532C844.3 187.048 830.178 189.565 829.388 189.99C829.845 192.082 831.121 197.404 831.197 199.245L831.557 199.3C840.272 200.575 843.867 200.654 831.197 200.486C835.646 222.499 860.303 255.736 846.486 277.591C852.599 287.948 858.785 314.191 859.997 326.356C935.089 282.931 895.246 229.759 932.679 205.922C945.35 197.853 960.15 208.05 954.892 222.524C951.996 230.496 946.811 235.42 943.952 243.222C932.407 295.467 931.352 323.184 874.289 352.588C869.069 355.278 862.718 358.207 857.894 361.384C855.813 366.241 853.319 373.054 851.155 377.569C873.789 388.209 848.162 402.768 832.324 393.737C825.439 389.81 814.144 375.8 810.722 375.339C797.267 373.816 790.263 377.168 778.267 377.425C760.553 377.804 740.564 377.991 723.003 376.465C717.078 375.87 712.43 375.423 706.461 375.339C689.35 378.692 678.94 397.92 662.293 395.56C645.264 393.146 651.338 382.413 661.196 375.339C656.157 364.336 655.316 357.111 656.05 344.976C640.935 356.974 627.93 361.229 609.075 364.003L604.83 374.071C635.461 404.75 587.539 396.21 581.858 390.289C574.465 382.586 566.193 373.437 556.085 374.967C529.172 379.04 502.522 380.228 475.596 375.708C446.698 373.239 443.64 398.525 421.794 395.529C404.833 393.202 408.534 382.937 420.084 375.339C416.947 365.903 413.426 357.179 413.755 347.18C414.474 346.348 415.023 344.182 415.394 343.013C416.196 328.286 423.246 311.755 424.488 291.571L448.704 302.459C449.485 304.885 450.481 307.547 451.335 309.973C451.553 307.543 450.654 305.37 451.335 303.765L452.227 303.765L452.262 303.422C454.187 303.206 454.57 303.154 456.387 302.459C442.588 297.269 421.567 292.167 416.345 277.591C416.159 279.532 416.487 279.018 415.394 280.019C405.297 250.975 431.979 231.696 439.948 203.813C437.018 204.314 434.315 204.768 431.356 205.113L430.775 204.297L430.417 204.457L430.571 205.14C427.525 205.034 439.137 200.783 439.948 200.486C440.527 197.291 440.918 194.449 441.314 191.227C437.177 190.621 433.539 190.232 429.602 188.74L429.47 188.276C433.557 187.725 437.207 188.217 441.314 188.532C441.774 184.657 443.148 180.609 444.331 176.9C442.267 176.248 436.987 174.893 436.167 173.021L435.851 173.468L435.556 172.853L435.377 173.168L435.183 172.717L435.308 172.987L436.082 172.81L435.987 173.332L436.549 172.904C439.312 173.588 441.69 174.589 444.331 175.624C446.679 162.854 458.157 110.522 468.75 113.248C472.978 114.336 484.464 132.931 486.693 139.022C503.225 137.506 518.986 138.562 534.316 137.303ZM737.093 285.584C734.243 285.641 728.879 285.051 727.099 287.26C729.17 288.883 731.988 289.554 732.189 292.435C733.614 312.912 706.655 306.241 695.79 303.765C699.749 367.375 788.144 381.995 813.515 325.68C815.502 321.271 822.51 303.049 821.088 299.088C810.21 304.28 787.737 311.494 776.217 300.839C772.904 297.775 769.31 290.301 777.442 287.304C776.417 285.746 776.005 283.667 775.526 281.837C767.796 281.99 744.169 284.217 737.093 285.584ZM711.496 127.421C706.487 132.095 704.594 143.531 703.918 150.078C706.771 149.66 710.632 149.223 713.315 148.405C717.834 147.185 719.365 146.072 723.003 143.265C720.912 139.45 715.58 127.952 711.496 127.421ZM709.412 244.805C721.658 244.911 741.956 242.084 754.964 241.026C761.508 239.868 771.788 238.838 778.96 237.864C781.164 234.932 783.059 233.489 785.869 231.128C762.662 214.99 728.44 226.275 709.412 244.805ZM747.259 269.896C752.002 268.088 754.379 262.776 752.568 258.034C750.757 253.293 745.443 250.919 740.703 252.733C735.966 254.545 733.595 259.853 735.405 264.591C737.214 269.328 742.521 271.703 747.259 269.896ZM525.831 195.505C521.727 198.823 522.104 206.127 527.883 207.483C528.545 205.669 529.063 204.235 529.548 202.369C529.065 199.767 529.002 196.081 525.831 195.505Z"/><path fill="#8B8A8A" d="M534.316 137.303C537.002 132.232 548.904 109.085 555.213 110.644C563.615 117.4 572.208 163.182 576.319 175.624C578.149 174.564 579.596 173.816 581.506 172.903L581.325 173.067L582.92 172.714L583.078 172.513C582.35 173.901 577.958 176.016 576.319 176.9C576.914 180.924 577.641 184.546 578.466 188.532L578.466 189.99C579.181 192.577 579.921 195.108 580.687 197.678C582.991 198.139 585.817 198.499 587.753 199.726L587.438 200.167C584.983 200.311 583.066 199.768 580.687 199.245C585.608 218.557 614.186 260.766 598.884 277.591C598.843 278.24 598.656 279.534 598.884 280.019C590.388 289.425 584.624 293.066 573.938 299.088C574.049 331.003 564.368 358.224 528.458 360.66C525.027 360.893 520.491 358.994 516.968 359.36C507.496 360.444 502.006 364.893 491.841 361.384C473.29 357.668 453.761 327.095 451.335 309.973C451.553 307.543 450.654 305.37 451.335 303.765L452.227 303.765L452.262 303.422C454.187 303.206 454.57 303.154 456.387 302.459C442.588 297.269 421.567 292.167 416.345 277.591C416.159 279.532 416.487 279.018 415.394 280.019C405.297 250.975 431.979 231.696 439.948 203.813C437.018 204.314 434.315 204.768 431.356 205.113L430.775 204.297L430.417 204.457L430.571 205.14C427.525 205.034 439.137 200.783 439.948 200.486C440.527 197.291 440.918 194.449 441.314 191.227C437.177 190.621 433.539 190.232 429.602 188.74L429.47 188.276C433.557 187.725 437.207 188.217 441.314 188.532C441.774 184.657 443.148 180.609 444.331 176.9C442.267 176.248 436.987 174.893 436.167 173.021L435.851 173.468L435.556 172.853L435.377 173.168L435.183 172.717L435.308 172.987L436.082 172.81L435.987 173.332L436.549 172.904C439.312 173.588 441.69 174.589 444.331 175.624C446.679 162.854 458.157 110.522 468.75 113.248C472.978 114.336 484.464 132.931 486.693 139.022C503.225 137.506 518.986 138.562 534.316 137.303ZM527.883 207.483C528.545 205.669 529.063 204.235 529.548 202.369C529.065 199.767 529.002 196.081 525.831 195.505C521.727 198.823 522.104 206.127 527.883 207.483Z"/><path fill="#FECF0B" d="M456.387 218.045C455.928 207.345 448.883 203.765 465.554 202.369L468.714 211.97C485.854 218.109 491.272 220.385 503.225 234.408C505.807 224.935 512.633 214.331 519.755 207.483L519.755 209.476C522.358 208.392 523.096 208.785 525.831 209.476C527.023 210.035 528.182 209.678 529.548 209.476C532.619 207.933 533.443 206.651 535.411 203.813C538.917 206.075 542.65 209.292 545.924 211.97C547.182 216.161 552.498 223.148 554.461 227.466C559.984 239.61 563.254 253.048 565.257 266.171C557.385 271.925 549.807 274.714 540.041 274.258C536.306 274.962 527.58 275.784 525.855 279.253C522.853 285.29 519.998 297.317 525.831 302.459C537.684 311.802 559.248 304.666 571.541 299.088C571.809 331.152 561.684 357.2 525.215 357.936C522.173 357.997 519.49 357.373 518.113 354.48L518.113 354.48L517.738 355.586C510.349 358.375 502.844 361.017 494.834 359.494C493.405 360.093 492.944 360.216 491.841 361.384C473.29 357.668 453.761 327.095 451.335 309.973C451.553 307.543 450.654 305.37 451.335 303.765L452.227 303.765L459.206 306.032C460.461 305.468 464.031 304.938 465.554 304.664C467.235 305.022 469.205 304.784 470.948 304.664L473.694 306.032C483.998 300.139 481.835 284.565 471.274 280.651C469.869 277.326 472.12 273.677 466.289 273.336C459.863 272.959 451.391 277.302 448.704 269.274L448.031 269.051C447.454 266.593 447.216 265.751 445.33 264.175C444.248 257.809 443.95 247.54 444.331 241.026C444.299 232.785 448.317 221.497 456.387 218.045Z"/><path fill="#FDFDF9" d="M475.302 262.549C484.816 220.195 553.253 243.619 546.006 259.77C542.361 267.895 532.184 265.48 529.548 271.545L527.883 272.737C521.856 281.804 502.341 283.335 496.116 274.258C484.461 275.634 478.556 274.708 475.302 262.549Z"/><path fill="#3B2D1A" d="M490.294 248.681C500.492 246.533 502.83 255.659 494.834 261.029C485.432 262.7 480.853 253.237 490.294 248.681Z"/><path fill="#3B2D1A" d="M514.289 272.737C487.898 268.986 516.961 256.172 522.015 265.742C522.271 272.374 515.629 270.827 514.289 272.737L514.289 272.737Z"/><path fill="#3F3831" d="M527.982 243.629C531.529 243.374 534.633 245.992 534.98 249.53C535.326 253.069 532.789 256.239 529.26 256.676C526.895 256.969 524.558 255.956 523.155 254.031C521.751 252.105 521.503 249.57 522.506 247.409C523.509 245.247 525.606 243.801 527.982 243.629Z"/><path fill="#242020" d="M505.864 238.939C507.277 240.005 510.111 250.252 510.85 252.605C507.557 251.276 505.909 242.223 505.864 238.939Z"/><path fill="#242020" d="M514.289 272.737L514.289 272.737C514.321 274.458 514.194 277.069 513.232 278.518L512.884 277.857C513.065 275.664 513.486 274.801 514.289 272.737Z"/><path fill="#242020" d="M515.986 238.939C517.035 240.548 516.282 244.524 515.986 246.452C513.873 244.991 515.395 240.962 515.986 238.939Z"/><path fill="#3B2D1A" d="M456.387 218.045C455.928 207.345 448.883 203.765 465.554 202.369L468.714 211.97C485.854 218.109 491.272 220.385 503.225 234.408C505.807 224.935 512.633 214.331 519.755 207.483L519.755 209.476C514.138 217.111 507.038 226.905 505.864 236.561C510.021 236.472 513.948 236.366 518.113 236.561C518.088 231.158 518.726 227.534 523.43 224.018C520.023 229.104 519.43 230.575 518.113 236.561C520.532 237.312 523.426 238.29 525.831 238.939C525.903 235.806 525.893 226.478 527.338 224.229L527.883 224.018C529.527 222.315 530.833 220.999 532.624 219.421C531.351 216.729 530.401 214.846 529.548 211.97C536.348 221.412 537.527 233.444 537.834 244.805C558.651 259.145 546.599 264.415 530.078 271.626L529.548 271.545C532.184 265.48 542.361 267.895 546.006 259.77C553.253 243.619 484.816 220.195 475.302 262.549C478.556 274.708 484.461 275.634 496.116 274.258C502.341 283.335 521.856 281.804 527.883 272.737C529.946 282.616 506.652 283.977 496.116 277.591C476.932 276.171 464.237 264.651 480.661 247.957C483.09 245.489 486.29 243.815 488.567 241.026C484.415 232.992 480.875 228.829 475.123 222.23L475.603 222.202C482.026 226.88 486.922 233.914 490.294 241.026C495.411 238.484 497.66 237.814 503.225 236.561C492.221 223.74 484.796 219.2 468.714 214.662C465.438 218.808 461.462 219.87 456.387 218.045L456.387 218.045Z"/><path fill="#FEE89C" d="M527.883 224.018C529.527 222.315 530.833 220.999 532.624 219.421C534.526 226.398 535.591 236.372 535.411 243.537C532.712 242.026 530.475 240.615 527.883 238.939C527.79 236.666 528.26 225.144 527.883 224.018Z"/><path fill="#37ABFA" d="M459.206 218.045C450.8 203.058 462.171 198.81 465.554 207.483C466.555 210.999 467.505 213.006 465.554 216.198C464.069 217.212 463.749 217.466 462.011 218.045C460.69 218.262 460.097 218.629 459.206 218.045Z"/><path fill="#446ECB" d="M459.206 218.045C450.8 203.058 462.171 198.81 465.554 207.483C462.586 205.97 462.705 203.97 459.206 206.299C457.336 211.175 458.901 212.82 459.206 218.045Z"/><path fill="#0A1481" d="M459.206 206.299C462.705 203.97 462.586 205.97 465.554 207.483C466.555 210.999 467.505 213.006 465.554 216.198C464.54 211.18 465.846 205.745 459.206 206.299L459.206 206.299Z"/><path fill="#0A1481" d="M459.206 206.299L459.206 206.299C458.833 209.587 458.298 216.81 462.011 218.045C460.69 218.262 460.097 218.629 459.206 218.045C458.901 212.82 457.336 211.175 459.206 206.299Z"/><path fill="#3B3736" d="M451.335 309.973C451.553 307.543 450.654 305.37 451.335 303.765L451.484 304.118C460.342 325.391 467.731 353.822 494.834 359.494C493.405 360.093 492.944 360.216 491.841 361.384C473.29 357.668 453.761 327.095 451.335 309.973Z"/><path fill="#3B3736" d="M444.331 241.026C444.299 232.785 448.317 221.497 456.387 218.045L456.387 218.045C448.73 228.478 447.047 232.9 446.97 245.851C446.267 245.192 445.132 242.377 444.331 241.026Z"/><path fill="#3F3831" d="M444.331 241.026C445.132 242.377 446.267 245.192 446.97 245.851C446.633 253.987 448.276 261.364 448.704 269.274L448.031 269.051C447.454 266.593 447.216 265.751 445.33 264.175C444.248 257.809 443.95 247.54 444.331 241.026Z"/><path fill="#242020" d="M518.113 354.48C511.682 346.423 509.225 328.425 507.577 318.23C506.617 312.293 508.622 317.023 509.091 320.132C510.881 331.994 514.148 343.198 518.113 354.48L518.113 354.48Z"/><path fill="#3B2D1A" d="M465.554 304.664C467.235 305.022 469.205 304.784 470.948 304.664L473.694 306.032C467.532 308.189 465.368 307.668 459.206 306.032C460.461 305.468 464.031 304.938 465.554 304.664Z"/><path fill="#3B2D1A" d="M476.996 318.855C478.048 319.587 485.023 332.855 486.75 335.47C491.357 342.447 498.928 348.515 503.225 354.48C493.909 351.518 479.966 327.921 476.996 318.855Z"/><path fill="#3B2D1A" d="M465.554 226.11C467.075 227.576 469.604 246.076 473.694 252.605L472.783 252.646C466.627 249.462 465.268 232.487 465.554 226.11Z"/><path fill="#242020" d="M537.834 320.929C540.926 323.626 534.401 343.589 532.624 347.18C532.25 346.71 537.568 323.655 537.834 320.929Z"/><path fill="#242020" d="M503.225 281.837C505.062 283.553 508.955 294.303 509.883 297.128L509.371 297.011C507.321 295.403 503.77 284.644 503.225 281.837Z"/><path fill="#2E2E32" d="M534.316 137.303C537.002 132.232 548.904 109.085 555.213 110.644C563.615 117.4 572.208 163.182 576.319 175.624C578.149 174.564 579.596 173.816 581.506 172.903L581.325 173.067L582.92 172.714L583.078 172.513C582.35 173.901 577.958 176.016 576.319 176.9C576.914 180.924 577.641 184.546 578.466 188.532L578.466 189.99C579.181 192.577 579.921 195.108 580.687 197.678C582.991 198.139 585.817 198.499 587.753 199.726L587.438 200.167C584.983 200.311 583.066 199.768 580.687 199.245C585.608 218.557 614.186 260.766 598.884 277.591C598.843 278.24 598.656 279.534 598.884 280.019C590.388 289.425 584.624 293.066 573.938 299.088C574.049 331.003 564.368 358.224 528.458 360.66C525.027 360.893 520.491 358.994 516.968 359.36C507.496 360.444 502.006 364.893 491.841 361.384C492.944 360.216 493.405 360.093 494.834 359.494C502.844 361.017 510.349 358.375 517.738 355.586L518.113 354.48L518.113 354.48C519.49 357.373 522.173 357.997 525.215 357.936C561.684 357.2 571.809 331.152 571.541 299.088C559.248 304.666 537.684 311.802 525.831 302.459C525.541 300.191 525.618 299.427 525.831 297.128C536.781 317.545 588.145 292.7 598.754 274.362C608.504 257.802 583.289 215.832 578.466 199.245C573.484 198.804 569.495 199.523 564.255 198.251C566.395 197.094 575.575 197.567 578.466 197.678L576.319 191.227C571.931 191.502 569.508 192.805 564.954 192.806L565.131 192.373C569.486 190.573 571.78 189.722 576.319 188.532C575.615 184.831 574.939 182.035 573.938 178.4C571.435 180.255 567.571 183.444 564.607 184.054L565.142 183.118L565.64 183.613L565.549 182.725C567.919 180.389 571.079 178.654 573.938 176.9C571.526 160.386 562.089 123.551 554.149 111.671C546.943 118.721 538.959 131.104 535.411 140.516C515.238 137.483 505.808 139.704 486.693 140.516C482.973 134.973 470.749 112.897 467.097 114.496C457.783 118.574 447.357 170.294 445.33 176.9C449.7 178.098 453.492 180.199 457.189 182.772L457.037 182.891C452.575 181.89 449.467 180.268 445.33 178.4C444.487 181.432 443.742 185.39 443.067 188.532C447.427 189.68 451.95 190.802 456.229 192.185C454.774 193.172 445.386 191.56 443.067 191.227L441.314 200.486C445.048 199.753 452.784 198.035 456.24 198.87C454.581 200.357 444.1 201.879 441.314 202.369C435.472 234.181 408.868 246.041 416.345 277.591C416.159 279.532 416.487 279.018 415.394 280.019C405.297 250.975 431.979 231.696 439.948 203.813C437.018 204.314 434.315 204.768 431.356 205.113L430.775 204.297L430.417 204.457L430.571 205.14C427.525 205.034 439.137 200.783 439.948 200.486C440.527 197.291 440.918 194.449 441.314 191.227C437.177 190.621 433.539 190.232 429.602 188.74L429.47 188.276C433.557 187.725 437.207 188.217 441.314 188.532C441.774 184.657 443.148 180.609 444.331 176.9C442.267 176.248 436.987 174.893 436.167 173.021L435.851 173.468L435.556 172.853L435.377 173.168L435.183 172.717L435.308 172.987L436.082 172.81L435.987 173.332L436.549 172.904C439.312 173.588 441.69 174.589 444.331 175.624C446.679 162.854 458.157 110.522 468.75 113.248C472.978 114.336 484.464 132.931 486.693 139.022C503.225 137.506 518.986 138.562 534.316 137.303Z"/><path fill="#3B3736" d="M543.031 207.483C557.309 217.913 565.64 247.402 567.884 264.175C574.007 256.318 575.592 249.905 578.574 240.454L579.372 240.488C580.577 243.072 578.583 247.456 577.882 250.111C573.34 267.317 557.452 276.204 540.041 277.591L540.041 274.258C549.807 274.714 557.385 271.925 565.257 266.171C563.254 253.048 559.984 239.61 554.461 227.466C552.498 223.148 547.182 216.161 545.924 211.97C545.669 210.239 544.205 208.852 543.031 207.483Z"/><path fill="#3B3736" d="M459.206 285.584C483.828 271.367 458.308 278.179 451.575 275.84C442.302 272.618 433.574 260.171 436.525 249.936C440.912 256.736 436.632 260.955 446.97 271.545C446.124 268.743 445.817 267.023 445.33 264.175C447.216 265.751 447.454 266.593 448.031 269.051L448.704 269.274C451.391 277.302 459.863 272.959 466.289 273.336C472.12 273.677 469.869 277.326 471.274 280.651C481.835 284.565 483.998 300.139 473.694 306.032L470.948 304.664C475.701 302.442 476.567 300.027 478.655 295.55C475.739 297.13 472.573 298.856 469.18 299.044C471.443 295.766 479.934 295.466 476.346 288.648C473.8 287.739 473.36 290.95 470.942 290.815L470.789 290.2C482.455 280.433 464.813 284.343 459.206 285.584Z"/><path fill="#446ECB" d="M525.831 209.476C522.689 206.691 521.209 202.004 522.1 197.906C525.146 183.905 540.702 202.868 531.984 205.27C530.986 206.478 530.275 208.063 529.548 209.476C528.182 209.678 527.023 210.035 525.831 209.476ZM527.883 207.483C528.545 205.669 529.063 204.235 529.548 202.369C529.065 199.767 529.002 196.081 525.831 195.505C521.727 198.823 522.104 206.127 527.883 207.483Z"/><path fill="#3F3831" d="M519.755 202.369C517.305 187.037 533.04 182.726 537.834 203.813C539.687 204.933 541.531 205.92 543.031 207.483C544.205 208.852 545.669 210.239 545.924 211.97C542.65 209.292 538.917 206.075 535.411 203.813C533.443 206.651 532.619 207.933 529.548 209.476C530.275 208.063 530.986 206.478 531.984 205.27C540.702 202.868 525.146 183.905 522.1 197.906C521.209 202.004 522.689 206.691 525.831 209.476C523.096 208.785 522.358 208.392 519.755 209.476L519.755 207.483C520.596 205.554 520.343 205.782 519.755 203.813L519.755 202.369Z"/><path fill="#3B3736" d="M510.85 200.486C504.138 208.429 494.117 208.318 496.709 199.171L497.282 198.981C501.207 205.933 503.691 205.335 508.719 199.423C513.966 193.254 506.576 192.071 506.005 188.538L506.658 187.734C508.781 186.703 514.046 186.215 515.864 187.796C515.645 192.876 505.011 196.317 519.755 202.369L519.755 203.813C515.428 203.405 514.408 202.756 510.85 200.486Z"/><path fill="#3B3736" d="M525.831 302.459C519.998 297.317 522.853 285.29 525.855 279.253C527.58 275.784 536.306 274.962 540.041 274.258L540.041 277.591C535.725 277.408 528.325 277.358 525.87 281.776C526.643 286.001 536.483 285.219 537.384 286.902C534.762 288.76 529.988 285.919 526.547 286.56C521.045 290.52 531.791 294.868 534.374 297.212L533.851 296.736L534.114 297.594C530.673 296.605 523.875 290.471 525.831 297.128C525.618 299.427 525.541 300.191 525.831 302.459Z"/><path fill="#3B3736" d="M456.387 302.459C459.933 303.716 461.78 304.151 465.554 304.664C464.031 304.938 460.461 305.468 459.206 306.032L452.227 303.765L452.262 303.422C454.187 303.206 454.57 303.154 456.387 302.459Z"/><path fill="#FED4D4" d="M459.206 145.224L458.761 145.513C457.815 141.888 461.93 128.328 465.438 126.658C471.494 123.775 475.856 139.586 474.448 143.433L473.694 143.265C474.254 149.099 460.526 153.793 459.206 145.224Z"/><path fill="#242020" d="M459.206 145.224L458.761 145.513C457.815 141.888 461.93 128.328 465.438 126.658C471.494 123.775 475.856 139.586 474.448 143.433L473.694 143.265C470.693 119.367 459.96 128.237 459.225 144.87L459.206 145.224Z"/><path fill="#FEB9B5" d="M545.924 139.022C544.704 134.379 553.643 119.461 555.841 127.421C556.653 130.498 566.831 149.712 556.89 148.147C550.163 147.088 545.766 146.528 545.924 139.022Z"/><path fill="#242020" d="M545.924 139.022C544.704 134.379 553.643 119.461 555.841 127.421C549.248 125.165 547.836 134.378 545.924 139.022Z"/><path fill="#3B3736" d="M482.742 166.752C487.408 165.878 491.917 168.895 492.889 173.542C493.861 178.189 490.938 182.76 486.313 183.829C483.233 184.54 480.009 183.531 477.886 181.189C475.763 178.848 475.071 175.542 476.079 172.546C477.086 169.55 479.635 167.334 482.742 166.752Z"/><path fill="#3B3736" d="M537.014 165.709C541.706 164.928 546.138 168.112 546.896 172.808C547.653 177.504 544.447 181.92 539.748 182.654C535.081 183.383 530.702 180.205 529.95 175.542C529.198 170.879 532.354 166.484 537.014 165.709Z"/><path fill="#FDFDF9" d="M509.883 143.265C514.069 145.843 505.45 159.549 503.225 161.86C499.157 154.802 503.845 147.355 509.883 143.265Z"/><path fill="#FDFDF9" d="M519.755 143.265C524.667 146.185 518.319 158.706 515.986 161.86C511.081 157.429 516.391 147.289 519.755 143.265Z"/><path fill="#FEE89C" d="M829.388 199.245L831.197 199.245L831.557 199.3C840.272 200.575 843.867 200.654 831.197 200.486C835.646 222.499 860.303 255.736 846.486 277.591C852.599 287.948 858.785 314.191 859.997 326.356C935.089 282.931 895.246 229.759 932.679 205.922C945.35 197.853 960.15 208.05 954.892 222.524C951.996 230.496 946.811 235.42 943.952 243.222C932.407 295.467 931.352 323.184 874.289 352.588C869.069 355.278 862.718 358.207 857.894 361.384C855.813 366.241 853.319 373.054 851.155 377.569C873.789 388.209 848.162 402.768 832.324 393.737C825.439 389.81 814.144 375.8 810.722 375.339C797.267 373.816 790.263 377.168 778.267 377.425C760.553 377.804 740.564 377.991 723.003 376.465L723.003 375.339C717.592 374.182 711.958 373.542 706.461 372.83C694.91 375.979 666.026 400.454 663.116 392.055C663.602 388.382 666.648 387.434 666.435 385.617C661.782 385.533 662.269 391.166 659.501 392.858C653.641 390.957 666.256 382.689 659.417 384.757C658.472 383.506 657.271 382.648 656.05 381.652L662.699 376.465C652.008 335.543 661.984 327.703 668.261 289.812C675.821 295.518 687.05 300.284 695.79 303.765C699.749 367.375 788.144 381.995 813.515 325.68C815.502 321.271 822.51 303.049 821.088 299.088C810.21 304.28 787.737 311.494 776.217 300.839C772.904 297.775 769.31 290.301 777.442 287.304L777.442 285.584C780.104 287.329 784.876 288.438 788.308 289.812C784.388 289.782 776.521 287.867 773.677 291.111C773.552 296.563 782.682 295.565 784.135 297.997C782.771 298.748 779.58 298.309 777.509 298.395L777.152 299.075C786.338 315.644 832.84 294.531 843.433 280.121C859.753 257.919 833.878 226.126 829.388 200.486C825.745 200.497 811.742 200.721 808.987 200.173L808.993 199.627C810.608 199.062 826.086 199.359 829.388 199.245Z"/><path fill="#3F3831" d="M829.388 199.245L831.197 199.245L831.557 199.3C840.272 200.575 843.867 200.654 831.197 200.486C835.646 222.499 860.303 255.736 846.486 277.591C852.599 287.948 858.785 314.191 859.997 326.356C935.089 282.931 895.246 229.759 932.679 205.922C945.35 197.853 960.15 208.05 954.892 222.524C951.996 230.496 946.811 235.42 943.952 243.222C932.407 295.467 931.352 323.184 874.289 352.588C869.069 355.278 862.718 358.207 857.894 361.384C855.813 366.241 853.319 373.054 851.155 377.569C873.789 388.209 848.162 402.768 832.324 393.737C825.439 389.81 814.144 375.8 810.722 375.339L810.722 372.83C816.108 373.239 832.784 398.708 843.058 393.997C844.877 390.878 840.082 384.123 844.831 386.986C845.372 386.528 846.065 385.385 846.486 384.757C852.597 383.823 851.517 391.19 855.27 391.901C861.975 386.562 853.727 380.829 849.103 378.71C863.628 341.449 859.08 317.975 846.486 280.019C838.504 289.228 832.541 294.392 821.088 299.088C810.21 304.28 787.737 311.494 776.217 300.839C772.904 297.775 769.31 290.301 777.442 287.304L777.442 285.584C780.104 287.329 784.876 288.438 788.308 289.812C784.388 289.782 776.521 287.867 773.677 291.111C773.552 296.563 782.682 295.565 784.135 297.997C782.771 298.748 779.58 298.309 777.509 298.395L777.152 299.075C786.338 315.644 832.84 294.531 843.433 280.121C859.753 257.919 833.878 226.126 829.388 200.486C825.745 200.497 811.742 200.721 808.987 200.173L808.993 199.627C810.608 199.062 826.086 199.359 829.388 199.245Z"/><path fill="#FEB9B5" d="M844.831 386.986C845.372 386.528 846.065 385.385 846.486 384.757C848.408 386.903 851.995 386.74 851.822 390.536C851.648 394.347 846.385 396.422 844.752 392.565C845.342 389.876 845.598 389.586 844.831 386.986Z"/><path fill="#FEE89C" d="M859.997 327.9C890.329 311.109 907.377 292.656 912.275 257.288C914.456 241.764 923.404 192.775 949.699 207.483C961.74 218.974 946.452 230.301 942.703 241.155C931.983 277.568 941.098 291.014 908.114 326.222C892.643 342.737 876.131 348.45 857.894 359.494C858.681 354.618 859.342 349.865 859.997 344.976C860.278 339.553 860.065 333.382 859.997 327.9Z"/><path fill="#FECF0B" d="M949.699 207.483C961.74 218.974 946.452 230.301 942.703 241.155C931.983 277.568 941.098 291.014 908.114 326.222C892.643 342.737 876.131 348.45 857.894 359.494C858.681 354.618 859.342 349.865 859.997 344.976C894.492 330.65 922.916 301.945 928.619 264.252C930.142 254.186 930.929 244.632 934.389 234.904C937.933 224.937 948.437 217.971 949.699 207.483Z"/><path fill="#242020" d="M723.003 375.339C756.893 376.803 779.01 373.695 810.722 372.83L810.722 375.339C797.267 373.816 790.263 377.168 778.267 377.425C760.553 377.804 740.564 377.991 723.003 376.465L723.003 375.339Z"/><path fill="#8B8A8A" d="M598.884 280.019C605.013 306.315 616.429 327.036 609.541 355.461C607.675 363.162 604.231 368.671 602.248 375.339C606.272 378.591 616.148 385.046 612.4 391.22L610.956 391.88C608.68 389.535 610.144 386.506 606.485 385.222L606.105 385.715C607.387 388.595 610.147 392.812 605.684 393.892C600.342 392.486 600.678 385.252 594.591 385.57L594.366 386.241C597.348 388.557 600.066 390.412 602.248 393.5C592.351 393.641 588.026 393.478 580.481 386.123C563.38 369.452 561.688 372.503 539.746 374.987C525.832 376.563 512.105 376.748 498.146 376.446C476.061 375.967 468.423 367.49 448.123 381.671C443.21 385.103 431.151 396.085 424.922 393.045C424.632 389.603 428.288 387.498 427.78 386.091C423.413 387.274 422.449 396.142 417.688 391.547C416.935 388.222 420.987 386.904 421.024 384.789C417.945 384.535 416.189 388.596 413.566 390.411L412.968 390.252C410.841 384.541 418.573 378.716 422.368 375.339C418.381 361.848 415.269 357.707 415.394 343.013C416.196 328.286 423.246 311.755 424.488 291.571L448.704 302.459C449.485 304.885 450.481 307.547 451.335 309.973C453.761 327.095 473.29 357.668 491.841 361.384C502.006 364.893 507.496 360.444 516.968 359.36C520.491 358.994 525.027 360.893 528.458 360.66C564.368 358.224 574.049 331.003 573.938 299.088C584.624 293.066 590.388 289.425 598.884 280.019Z"/><path fill="#3B3736" d="M781.419 139.022C783.977 132.138 794.147 113.341 800.862 111.199C809.515 108.439 822.428 166.287 825.43 174.157L827.616 173.148C829.311 172.37 831.566 170.948 832.97 171.469L832.886 170.932L833.446 170.792L833.781 171.02L833.419 170.894L833.256 171.447C831.293 172.874 827.703 174.502 825.43 175.624C826.983 180.181 828.158 183.874 829.388 188.532C844.3 187.048 830.178 189.565 829.388 189.99C828.712 190.438 828.434 190.564 827.932 191.227C825.401 188.716 813.379 192.996 809.45 192.548C815.071 190.293 821.872 189.541 827.932 188.532C826.427 184.751 824.751 180.744 823.49 176.9C816.976 179.448 811.536 184.061 807.138 185.37C807.882 183.515 820.898 176.743 823.49 175.624C818.46 159.857 810.469 123.422 802.352 111.671C792.531 118.474 787.898 131.22 781.419 140.516C763.188 137.523 748.713 138.247 730.666 141.6C726.242 131.848 719.816 120.05 711.496 113.025C701.003 124.797 694.186 161.704 689.975 176.9C695.908 179.756 699.748 181.292 704.872 185.506C703.334 185.713 692.155 178.284 689.975 176.9L687.598 189.99C694.013 190.699 698.246 191.044 704.41 193.097L704.387 193.094L704.944 193.556C699.175 193.195 693.79 191.617 687.598 191.227C686.739 194.271 685.793 197.439 684.996 200.486C688.589 200.351 703.689 199.034 705.686 200.119L705.391 200.656C699.352 201.001 690.669 200.887 684.996 202.369C677.583 228.451 652.019 257.351 663.264 280.6C670.282 295.111 722.984 314.245 728.238 301.137C727.878 296.812 725.41 299.502 722.738 298.169L722.968 297.528C743.314 291.196 723.408 289.929 716.25 289.812C733.421 282.633 729.911 278.015 713.315 283.54C705.249 280.929 702.692 275.594 693.521 272.737L693.521 271.545C703.068 272.959 704.228 278.14 712.187 280.702C715.575 281.793 723.965 275.002 727.71 280.097C729.798 282.939 728.313 283.843 733.005 283.54C734.493 284.103 735.995 284.494 737.093 285.584C734.243 285.641 728.879 285.051 727.099 287.26C729.17 288.883 731.988 289.554 732.189 292.435C733.614 312.912 706.655 306.241 695.79 303.765C687.05 300.284 675.821 295.518 668.261 289.812C661.984 327.703 652.008 335.543 662.699 376.465L656.05 381.652C657.271 382.648 658.472 383.506 659.417 384.757C666.256 382.689 653.641 390.957 659.501 392.858C662.269 391.166 661.782 385.533 666.435 385.617C666.648 387.434 663.602 388.382 663.116 392.055C666.026 400.454 694.91 375.979 706.461 372.83C711.958 373.542 717.592 374.182 723.003 375.339L723.003 376.465C717.078 375.87 712.43 375.423 706.461 375.339C689.35 378.692 678.94 397.92 662.293 395.56C645.264 393.146 651.338 382.413 661.196 375.339C656.157 364.336 655.316 357.111 656.05 344.976C640.935 356.974 627.93 361.229 609.075 364.003L604.83 374.071C635.461 404.75 587.539 396.21 581.858 390.289C574.465 382.586 566.193 373.437 556.085 374.967C529.172 379.04 502.522 380.228 475.596 375.708C446.698 373.239 443.64 398.525 421.794 395.529C404.833 393.202 408.534 382.937 420.084 375.339C416.947 365.903 413.426 357.179 413.755 347.18C414.474 346.348 415.023 344.182 415.394 343.013C415.269 357.707 418.381 361.848 422.368 375.339C418.573 378.716 410.841 384.541 412.968 390.252L413.566 390.411C416.189 388.596 417.945 384.535 421.024 384.789C420.987 386.904 416.935 388.222 417.688 391.547C422.449 396.142 423.413 387.274 427.78 386.091C428.288 387.498 424.632 389.603 424.922 393.045C431.151 396.085 443.21 385.103 448.123 381.671C468.423 367.49 476.061 375.967 498.146 376.446C512.105 376.748 525.832 376.563 539.746 374.987C561.688 372.503 563.38 369.452 580.481 386.123C588.026 393.478 592.351 393.641 602.248 393.5C600.066 390.412 597.348 388.557 594.366 386.241L594.591 385.57C600.678 385.252 600.342 392.486 605.684 393.892C610.147 392.812 607.387 388.595 606.105 385.715L606.485 385.222C610.144 386.506 608.68 389.535 610.956 391.88L612.4 391.22C616.148 385.046 606.272 378.591 602.248 375.339C604.231 368.671 607.675 363.162 609.541 355.461C616.429 327.036 605.013 306.315 598.884 280.019C598.656 279.534 598.843 278.24 598.884 277.591C606.02 289.611 613.608 328.177 613.45 341.293C636.591 338.049 637.062 322.184 661.196 315.543C663.65 306.355 665.073 296.703 666.581 287.304C642.861 268.284 676.205 225.977 683.066 203.813C681.219 204.193 676.592 205.52 675.382 204.89L675.157 205.36L674.8 205.278C673.394 205.435 683.063 202.37 683.066 202.369C683.989 198.531 684.443 195.14 684.996 191.227C681.615 190.698 678.206 190.719 674.371 190.11L674.25 189.788C678.186 189.296 681.048 189.659 684.996 189.99C686.341 185.122 686.852 181.839 687.598 176.9C678.689 171.947 676.263 169.698 687.598 175.624C694.769 156.515 697.072 130.468 709.292 113.453C714.111 106.744 730.359 135.509 733.005 139.022C754.66 137.185 758.758 135.279 781.419 139.022Z"/><path fill="#FEFABB" d="M656.05 381.652C657.271 382.648 658.472 383.506 659.417 384.757C656.635 387.083 656.612 389.49 654.321 390.476L653.78 389.621C653.417 385.673 653.884 385.102 656.05 381.652Z"/><path fill="#FECF0B" d="M659.417 318.855L660.096 318.767C660.538 319.759 659.629 321.691 659.218 322.822C656.785 329.518 656.289 335.897 656.05 343.013C643.938 353.045 627.303 359.94 611.615 361.384L610.532 361.408C610.145 360.47 613.161 345.537 613.45 343.013C634.234 339.839 640.251 323.752 659.417 318.855Z"/><path fill="#FE744F" d="M709.412 244.805C721.658 244.911 741.956 242.084 754.964 241.026C755.883 241.45 756.797 241.922 757.768 242.186C761.081 242.237 764.689 242.364 767.966 242.186C762.475 247.684 765.523 255.545 766.488 262.549C771.958 267.224 774.003 267.925 781.419 268.071C781.938 269.423 782.65 271.476 783.223 272.737C786.411 275.138 787.988 276.017 788.308 280.019L788.308 280.999C784.58 280.222 782.669 280.215 778.96 280.999C777.538 282.85 777.631 283.298 777.442 285.584L777.442 287.304C776.417 285.746 776.005 283.667 775.526 281.837C767.796 281.99 744.169 284.217 737.093 285.584C735.995 284.494 734.493 284.103 733.005 283.54C728.313 283.843 729.798 282.939 727.71 280.097C723.965 275.002 715.575 281.793 712.187 280.702C704.228 278.14 703.068 272.959 693.521 271.545C693.075 270.902 691.381 253.116 691.473 252.884L693.521 252.605L692.965 252.181L693.286 251.475L695.79 250.755C701.033 247.127 702.963 245.445 709.412 244.805ZM747.259 269.896C752.002 268.088 754.379 262.776 752.568 258.034C750.757 253.293 745.443 250.919 740.703 252.733C735.966 254.545 733.595 259.853 735.405 264.591C737.214 269.328 742.521 271.703 747.259 269.896Z"/><path fill="#3B3736" d="M709.412 244.805C721.658 244.911 741.956 242.084 754.964 241.026C755.883 241.45 756.797 241.922 757.768 242.186C741.335 245.043 724.342 245.583 707.772 247.394C701.886 248.037 699.062 251.882 693.521 252.605L692.965 252.181L693.286 251.475L695.79 250.755C701.033 247.127 702.963 245.445 709.412 244.805Z"/><path fill="#3B3736" d="M733.005 283.54C747.586 281.224 762.716 280.523 777.442 278.935L778.96 280.999C777.538 282.85 777.631 283.298 777.442 285.584L777.442 287.304C776.417 285.746 776.005 283.667 775.526 281.837C767.796 281.99 744.169 284.217 737.093 285.584C735.995 284.494 734.493 284.103 733.005 283.54Z"/><path fill="#3B2D1A" d="M777.442 278.935C781.968 278.218 784.031 278.807 788.308 280.019L788.308 280.999C784.58 280.222 782.669 280.215 778.96 280.999L777.442 278.935Z"/><path fill="#3B3736" d="M740.703 252.733C745.443 250.919 750.757 253.293 752.568 258.034C754.379 262.776 752.002 268.088 747.259 269.896C742.521 271.703 737.214 269.328 735.405 264.591C733.595 259.853 735.966 254.545 740.703 252.733ZM745.25 268.721C747.89 268.296 750.095 266.479 751.015 263.968C751.935 261.458 751.427 258.646 749.687 256.616C747.947 254.586 745.246 253.655 742.624 254.18C738.677 254.972 736.09 258.777 736.805 262.739C737.521 266.7 741.276 269.36 745.25 268.721Z"/><path fill="#3B3736" d="M785.869 231.128C788.432 227.49 790.001 227.938 794.232 228.096L795.975 234.408C797.415 234.268 803.098 233.46 803.825 235.013C805.65 238.913 809.425 270.633 808.026 272.737L810.722 274.258C820.983 262.62 825.679 243.638 826.263 243.076C830.784 250.165 812.07 290.243 788.308 280.999L788.308 280.019C787.988 276.017 786.411 275.138 783.223 272.737C782.65 271.476 781.938 269.423 781.419 268.071C774.003 267.925 771.958 267.224 766.488 262.549C765.523 255.545 762.475 247.684 767.966 242.186C764.689 242.364 761.081 242.237 757.768 242.186C756.797 241.922 755.883 241.45 754.964 241.026C761.508 239.868 771.788 238.838 778.96 237.864C781.164 234.932 783.059 233.489 785.869 231.128Z"/><path fill="#FDFDF9" d="M808.026 272.737L810.722 274.258C807.997 275.774 797.792 280.866 794.846 279.343C793.842 274.149 804.905 273.699 808.026 272.737Z"/><path fill="#8B8A8A" d="M785.869 234.408L786.188 234.735C786.995 237.727 791.16 272.337 790.684 273.537C789.081 273.762 787.481 273.164 785.869 272.737C782.709 269.242 780.095 247.224 778.96 241.026C781.046 237.835 782.875 236.64 785.869 234.408Z"/><path fill="#67696D" d="M766.488 245.851C768.672 243.968 774.621 238.624 777.353 241L777.442 243.537C777.471 243.95 777.56 244.444 777.442 244.805C777.068 244.292 780.71 263.443 781.419 266.171C774.332 265.88 773.855 265.1 767.966 261.029C767.637 255.218 767.412 251.681 766.488 245.851Z"/><path fill="#2E2E32" d="M777.442 243.537C777.471 243.95 777.56 244.444 777.442 244.805C775.249 248.17 779.129 261.488 773.414 259.762C771.964 257.353 771.437 247.956 771.198 244.805C773.565 244.191 775.023 243.865 777.442 243.537Z"/><path fill="#8B8A8A" d="M790.875 231.128L791.788 231.523C793.509 234.108 797.173 270.635 795.975 272.737L794.677 271.901C793.433 270.178 786.789 234.1 790.875 231.128Z"/><path fill="#8B8A8A" d="M802.352 250.755L803.068 250.712C805.097 254.98 809.956 270.115 802.352 271.545C798.562 271.496 799.308 255.691 798.989 251.225C799.678 250.697 801.381 250.791 802.352 250.755Z"/><path fill="#8B8A8A" d="M798.764 236.561C805.759 236.007 803.722 249.658 798.764 246.452C798.103 243.819 797.621 242.407 800.496 241.528L800.71 241.115C796.37 240.555 792.968 237.954 798.764 236.561Z"/><path fill="#3B3736" d="M684.996 250.755C689.595 250.072 690.779 250.953 692.079 246.452L693.521 248.681C694.208 250.104 694.114 250.203 695.79 250.755L693.286 251.475L692.965 252.181L693.521 252.605L691.473 252.884C691.381 253.116 693.075 270.902 693.521 271.545L693.521 272.737L686.171 271.545C685.184 263.367 684.628 258.948 684.996 250.755Z"/><path fill="#8B8A8A" d="M687.598 254.746C689.315 256.211 689.739 266.441 689.975 269.274C687.649 267.025 687.765 258.297 687.598 254.746Z"/><path fill="#3B2D1A" d="M692.079 246.452C693.339 243.009 694.111 241.461 696.727 238.895L697.129 238.838C697.646 241.168 694.525 245.584 693.521 248.681L692.079 246.452Z"/><path fill="#3B3736" d="M827.932 191.227C828.434 190.564 828.712 190.438 829.388 189.99C829.845 192.082 831.121 197.404 831.197 199.245L829.388 199.245L827.932 191.227Z"/><path fill="#FED4D4" d="M790.875 140.516C795.536 113.658 812.132 130.47 810.722 145.224C808.527 151.467 789.116 146.749 790.875 140.516Z"/><path fill="#242020" d="M790.875 140.516C795.536 113.658 812.132 130.47 810.722 145.224C804.127 130.02 804.388 116.576 790.875 140.516Z"/><path fill="#4A4953" d="M738.816 176.927C738.285 180.884 735.121 183.966 731.152 184.392C727.184 184.819 723.437 182.479 722.078 178.726C720.719 174.973 722.099 170.778 725.42 168.564C728.742 166.351 733.146 166.692 736.086 169.391C738.173 171.306 739.192 174.12 738.816 176.927Z"/><path fill="#3B3736" d="M736.086 169.391C738.173 171.306 739.192 174.12 738.816 176.927L737.097 175.971C736.035 173.962 735.829 172.727 735.303 170.5L736.086 169.391Z"/><path fill="#4A4953" d="M784.962 167.078C789.591 166.406 793.897 169.586 794.618 174.207C795.339 178.827 792.205 183.167 787.592 183.937C784.565 184.442 781.499 183.282 779.564 180.898C777.63 178.515 777.125 175.277 778.241 172.418C779.358 169.558 781.925 167.52 784.962 167.078Z"/><path fill="#3B3736" d="M754.964 199.245C749.319 205.131 736.207 206.388 738.593 198.036C742.845 198.312 745.395 208.013 754.964 195.505L756.257 195.505C761.937 207.9 769.495 198.346 771.388 198.248L772.027 199.252C771.003 207.729 759.713 203.689 754.964 199.245Z"/><path fill="#4A4953" d="M754.964 195.505C735.506 185.539 776.007 176.687 756.257 195.505L754.964 195.505Z"/><path fill="#FDFDF9" d="M764.718 143.265L765.959 143.874C767.601 147.125 767.984 159.055 764.718 161.86C758.922 158.654 762.237 148.003 764.718 143.265Z"/><path fill="#FDFDF9" d="M756.257 145.224L757.35 145.614C758.878 148.425 757.723 159.123 754.964 161.86C750.434 158.18 752.504 148.728 756.257 145.224Z"/><path fill="#FDFDF9" d="M746.29 145.224C749.885 148.111 749.417 157.864 747.304 161.86C741.256 159.053 744.265 150.101 746.29 145.224Z"/><path fill="#BFBEBF" d="M289.786 140.516C319.562 72.84 324.239 147.867 334.579 176.9C343.883 170.189 344.322 171.443 334.579 178.4L336.695 188.532C348.045 188.176 348.336 189.032 336.695 191.227L339.08 199.245C347.924 199.777 348.388 201.63 339.08 200.486C343.255 224.255 370.56 257.294 356.962 280.019C358.918 284.736 362.396 292.432 363.909 297.128C367.532 314.484 371.081 322.59 369.988 341.293C393.886 334.654 397.113 322.627 420.084 312.792C421.994 305.008 422.13 297.745 422.368 289.812C418.54 286.662 416.515 284.846 415.394 280.019C416.487 279.018 416.159 279.532 416.345 277.591C421.567 292.167 442.588 297.269 456.387 302.459C454.57 303.154 454.187 303.206 452.262 303.422L452.227 303.765L451.335 303.765C450.654 305.37 451.553 307.543 451.335 309.973C450.481 307.547 449.485 304.885 448.704 302.459L424.488 291.571C423.246 311.755 416.196 328.286 415.394 343.013C415.023 344.182 414.474 346.348 413.755 347.18L413.338 345.734C411.835 345.364 371.361 364.467 363.909 366.936C362.407 370.192 361.078 373.13 359.767 376.465C380.015 392.056 359.094 399.866 347.354 395.362C335.312 394.122 330.244 376.894 317.373 376.863C286.603 376.789 262.196 380.222 229.451 377.63C194.236 374.876 204.178 388.719 181.943 395.362C175.128 397.243 170.918 396.612 164.76 393.5C153.277 389.166 165.833 378.747 171.14 375.339C167.009 364.345 165.542 358.919 164.76 347.18C118.856 377.213 86.9623 342.719 105.648 332.122C110.714 329.25 119.375 336.11 124.592 338.189C138.369 343.677 147.436 332.357 157.524 325.355C160.977 322.95 165.418 322.591 169.152 320.929C169.122 320.775 172.628 296.414 172.593 289.812C167.416 288.288 164.68 287.857 161.338 283.54C157.721 276.989 157.901 265.933 157.92 258.59C161.783 256.947 165.503 254.701 169.152 252.605C180.323 230.941 188.276 229.293 193.121 203.813C187.778 205.86 188.48 204.093 193.121 202.369C194.172 198.591 195.17 194.944 196.42 191.227C194.202 191.402 191.547 191.831 189.519 191.072L189.726 190.562C192.233 189.831 193.845 189.964 196.42 189.99C197.59 185.243 198.535 181.567 200.128 176.9C197.399 175.788 194.391 174.794 192.189 172.889L192.033 172.23C194.783 172.507 197.639 174.29 200.128 175.624C201.566 168.881 211.318 112.7 222.108 113.4C227.427 113.746 237.586 133.202 244.233 139.022C262.077 140.072 269.973 136.375 289.786 140.516ZM231.646 334.094C229.102 329.855 226.55 315.637 225.365 309.973C217.931 308.609 212.877 307.06 205.859 304.664C202.914 311.034 214.115 333.316 218.145 338.83C248.923 380.954 324.044 360.442 331.987 299.088C317.742 305.105 305.494 308.391 289.786 307.409C290.375 312.425 291.979 323.481 291.717 327.9C284.267 333.081 244.605 340.301 235.724 337.957C233.614 337.077 232.366 336.349 231.646 334.094ZM225.365 281.837C221.649 269.489 221.915 268.357 233.462 262.549L233.462 254.746C240.407 252.954 247.617 248.478 251.162 256.647C258.719 252.426 262.899 252.341 271.277 252.605C273.07 256.842 272.879 257.035 277.209 258.59C277.817 258.583 279.203 258.527 279.752 258.59C284.328 264.084 284.392 270.633 285.019 277.591L285.019 278.935C295.667 269.672 291.873 293.904 320.06 271.545C299.456 225.32 251.086 216.571 214.946 252.38C209.633 257.644 206.381 265.018 202.933 271.545C210.557 277.873 215.679 280.082 225.365 281.837ZM248.81 261.029C248.667 258.977 248.547 257.279 248.224 255.25L247.595 254.746C242.934 255.194 238.998 255.608 234.418 256.647C234.747 258.419 235.028 260.738 235.928 262.232L236.969 262.549C242.175 261.051 243.218 260.887 248.81 261.029Z"/><path fill="#BFBEBF" d="M416.345 277.591C421.567 292.167 442.588 297.269 456.387 302.459C454.57 303.154 454.187 303.206 452.262 303.422L452.227 303.765L451.335 303.765C450.654 305.37 451.553 307.543 451.335 309.973C450.481 307.547 449.485 304.885 448.704 302.459L424.488 291.571C423.246 311.755 416.196 328.286 415.394 343.013C415.023 344.182 414.474 346.348 413.755 347.18L413.338 345.734C411.835 345.364 371.361 364.467 363.909 366.936C362.407 370.192 361.078 373.13 359.767 376.465C380.015 392.056 359.094 399.866 347.354 395.362C335.312 394.122 330.244 376.894 317.373 376.863C286.603 376.789 262.196 380.222 229.451 377.63C194.236 374.876 204.178 388.719 181.943 395.362C175.128 397.243 170.918 396.612 164.76 393.5C153.277 389.166 165.833 378.747 171.14 375.339C167.009 364.345 165.542 358.919 164.76 347.18C118.856 377.213 86.9623 342.719 105.648 332.122C110.714 329.25 119.375 336.11 124.592 338.189C138.369 343.677 147.436 332.357 157.524 325.355C160.977 322.95 165.418 322.591 169.152 320.929C169.827 320.877 170.494 320.765 171.14 320.929C171.959 309.485 174.618 302.798 174.506 289.812C186.626 295.642 193.02 299.416 205.859 304.664C202.914 311.034 214.115 333.316 218.145 338.83C248.923 380.954 324.044 360.442 331.987 299.088C343.456 292.738 346.725 291.71 355.286 282.001L355.881 282.063L356.962 283.54C360.055 285.82 360.634 295.508 363.909 297.128C367.532 314.484 371.081 322.59 369.988 341.293C393.886 334.654 397.113 322.627 420.084 312.792C421.994 305.008 422.13 297.745 422.368 289.812C418.54 286.662 416.515 284.846 415.394 280.019C416.487 279.018 416.159 279.532 416.345 277.591Z"/><path fill="#3B3736" d="M416.345 277.591C421.567 292.167 442.588 297.269 456.387 302.459C454.57 303.154 454.187 303.206 452.262 303.422L452.227 303.765L451.335 303.765C450.654 305.37 451.553 307.543 451.335 309.973C450.481 307.547 449.485 304.885 448.704 302.459L424.488 291.571C423.246 311.755 416.196 328.286 415.394 343.013C415.023 344.182 414.474 346.348 413.755 347.18L413.338 345.734C411.835 345.364 371.361 364.467 363.909 366.936C362.407 370.192 361.078 373.13 359.767 376.465C380.015 392.056 359.094 399.866 347.354 395.362L347.694 395.063C346.474 394.88 346.248 394.919 345.241 394.269L345.387 393.5C347.139 393.793 349.347 394.36 350.955 393.5C351.953 393.935 352.516 393.697 353.646 393.5L354.061 394.133C360.794 394.41 354.893 387.435 353.646 384.757C356.343 387.067 360.058 391.939 361.718 392.581C365.782 391.63 362.764 388.053 361.48 385.765L361.955 385.466C363.18 385.955 364.81 388.514 365.743 389.745C368.818 385.927 359.681 379.13 356.962 376.465C373.656 339.502 369.176 322.417 356.962 283.54C360.055 285.82 360.634 295.508 363.909 297.128C367.532 314.484 371.081 322.59 369.988 341.293C393.886 334.654 397.113 322.627 420.084 312.792C421.994 305.008 422.13 297.745 422.368 289.812C418.54 286.662 416.515 284.846 415.394 280.019C416.487 279.018 416.159 279.532 416.345 277.591Z"/><path fill="#8B8A8A" d="M420.084 315.543C420.238 316.184 414.091 336.969 413.755 343.013C402.189 345.564 382.255 359.15 365.538 364.003C365.088 362.976 369.653 345.398 369.988 343.013C389.74 335.682 384.597 339.694 401.045 325.582C406.659 320.765 413.269 318.095 420.084 315.543Z"/><path fill="#2E2E32" d="M169.152 320.929C169.827 320.877 170.494 320.765 171.14 320.929C163.439 344.944 167.009 352.398 172.593 375.339C168.755 378.894 160.882 385.01 162.368 390.801L163.271 391.538C164.987 388.99 164.374 386.57 167.742 385.54L168.864 385.739C167.996 388.736 163.502 390.601 167.755 393.5C166.345 393.211 166.159 393.184 164.76 393.5C153.277 389.166 165.833 378.747 171.14 375.339C167.009 364.345 165.542 358.919 164.76 347.18C118.856 377.213 86.9623 342.719 105.648 332.122C110.714 329.25 119.375 336.11 124.592 338.189C138.369 343.677 147.436 332.357 157.524 325.355C160.977 322.95 165.418 322.591 169.152 320.929Z"/><path fill="#BFBEBF" d="M167.755 323.07L168.165 323.484C165.599 332.072 165.405 335.867 164.76 344.976C146.554 356.016 122.05 366.091 105.033 347.18C95.011 335.772 105.469 330.197 121.867 338.739C140.365 348.374 150.295 328.81 167.755 323.07Z"/><path fill="#2E2E32" d="M183.65 393.5C217.611 368.217 210.973 374.668 254.693 377.139C274.533 378.261 293.677 375.984 313.425 374.59C329.163 373.48 333.232 386.004 345.387 393.5L345.241 394.269C346.248 394.919 346.474 394.88 347.694 395.063L347.354 395.362C335.312 394.122 330.244 376.894 317.373 376.863C286.603 376.789 262.196 380.222 229.451 377.63C194.236 374.876 204.178 388.719 181.943 395.362C182.577 394.805 183.489 394.405 184.261 394.016L183.65 393.5Z"/><path fill="#2E2E32" d="M167.755 393.5C169.756 392.331 169.959 387.079 173.217 386.294L174.232 386.928C174.613 391.195 164.236 396.935 183.65 393.5L184.261 394.016C183.489 394.405 182.577 394.805 181.943 395.362C175.128 397.243 170.918 396.612 164.76 393.5C166.159 393.184 166.345 393.211 167.755 393.5Z"/><path fill="#2E2E32" d="M350.955 393.5C349.647 390.906 347.653 387.545 347.354 384.757C350.403 388.021 351.789 389.554 353.646 393.5C352.516 393.697 351.953 393.935 350.955 393.5Z"/><path fill="#7A8E9E" d="M279.752 258.59C284.328 264.084 284.392 270.633 285.019 277.591L283.191 277.591L285.019 287.304C277.378 289.446 283.575 292.603 282.426 294.999C280.018 300.019 283.387 302.184 287.661 306.032C288.519 312.691 289.655 321.207 289.786 327.9C285.215 330.027 240.633 339.184 239.221 336.233C240.256 328.561 237.117 315.594 236.969 306.032C241.995 302.443 243.219 299.461 236.969 297.128C242.503 291.317 235.165 287.185 234.418 274.258C249.349 271.049 265.534 270.147 280.867 266.171C281.895 265.451 282.236 265.504 282.492 264.585L280.867 264.175L280.815 262.66C279.895 261.671 279.628 261.415 279.004 260.225L279.752 258.59Z"/><path fill="#4A4953" d="M279.752 258.59C284.328 264.084 284.392 270.633 285.019 277.591L283.191 277.591C282.579 274.094 283.051 268.727 280.867 266.171C281.895 265.451 282.236 265.504 282.492 264.585L280.867 264.175L280.815 262.66C279.895 261.671 279.628 261.415 279.004 260.225L279.752 258.59Z"/><path fill="#2E2E32" d="M258.812 283.458C263.509 282.491 268.364 284.128 271.518 287.741C274.672 291.355 275.637 296.386 274.045 300.91C272.452 305.434 268.548 308.751 263.826 309.592C256.659 310.869 249.796 306.149 248.424 298.999C247.053 291.849 251.681 284.924 258.812 283.458Z"/><path fill="#4C576B" d="M258.883 285.513C262.811 284.568 266.943 285.812 269.697 288.767C272.451 291.723 273.4 295.932 272.181 299.783C270.962 303.635 267.764 306.532 263.811 307.365C257.818 308.628 251.922 304.843 250.574 298.868C249.227 292.894 252.928 286.944 258.883 285.513Z"/><path fill="#2E2E32" d="M261.118 291.571C265.647 292.546 268.415 297.25 263.065 299.019L264.022 297.412L263.579 296.922L261.118 297.128L260.444 297.905L260.704 298.871L262.291 299.269L261.288 299.823C257.401 299.745 254.153 293.709 261.118 291.571Z"/><path fill="#2E2E32" d="M289.786 140.516C319.562 72.84 324.239 147.867 334.579 176.9C343.883 170.189 344.322 171.443 334.579 178.4L336.695 188.532C348.045 188.176 348.336 189.032 336.695 191.227L339.08 199.245C347.924 199.777 348.388 201.63 339.08 200.486C343.255 224.255 370.56 257.294 356.962 280.019C358.918 284.736 362.396 292.432 363.909 297.128C360.634 295.508 360.055 285.82 356.962 283.54L355.881 282.063L355.286 282.001C346.725 291.71 343.456 292.738 331.987 299.088C317.742 305.105 305.494 308.391 289.786 307.409C290.375 312.425 291.979 323.481 291.717 327.9C284.267 333.081 244.605 340.301 235.724 337.957L236.969 336.233C237.465 337.076 237.119 336.724 238.185 337.145L239.221 336.233C240.633 339.184 285.215 330.027 289.786 327.9C289.655 321.207 288.519 312.691 287.661 306.032C283.387 302.184 280.018 300.019 282.426 294.999C283.575 292.603 277.378 289.446 285.019 287.304L287.661 287.304C289.265 287.414 291.546 287.244 292.354 288.739C290.238 289.744 285.068 288.167 282.757 290.364L282.815 291.632C283.945 293.514 285.951 294.739 287.748 296.043C274.682 293.657 289.151 300.272 294.046 301.568L293.669 301.924C290.253 302.394 288.402 301.945 285.019 301.386C302.895 314.09 345.001 294.355 355.293 278.862C367.47 259.231 342.062 221.522 336.695 200.486C333.408 199.827 318.388 199.02 317.069 197.695C319.656 196.127 332.648 198.663 336.695 199.245C336.213 196.82 335.249 193.669 334.579 191.227C330.329 190.868 319.302 191.943 317.895 191.327L317.745 190.672C318.723 189.905 332.374 188.764 334.579 188.532C333.92 185.34 332.836 181.6 331.987 178.4C328.509 180.193 318.857 185.239 315.193 186.194C316.66 183.432 328.27 178.7 331.987 176.9C329.996 166.356 319.444 121.483 313.076 114.958C306.956 108.687 292.02 139.046 289.786 143.265C275.465 137.511 259.288 139.36 244.233 141.6C235.391 133.022 230.18 120.187 222.235 115.079C212.83 114.08 203.602 168.722 201.686 176.9C215.419 184.833 217.686 188.886 201.686 178.4L197.816 189.99C203.676 189.94 207.848 189.796 213.55 190.939L213.274 191.243C208.226 191.688 202.945 191.297 197.816 191.227L194.975 202.369C200.454 200.766 208.081 198.38 213.608 198.25L213.445 198.549C209.72 200.14 199.6 202.552 194.975 203.813C188.684 231.934 179.102 235.02 169.152 258.59C168.512 256.473 168.879 254.784 169.152 252.605C180.323 230.941 188.276 229.293 193.121 203.813C187.778 205.86 188.48 204.093 193.121 202.369C194.172 198.591 195.17 194.944 196.42 191.227C194.202 191.402 191.547 191.831 189.519 191.072L189.726 190.562C192.233 189.831 193.845 189.964 196.42 189.99C197.59 185.243 198.535 181.567 200.128 176.9C197.399 175.788 194.391 174.794 192.189 172.889L192.033 172.23C194.783 172.507 197.639 174.29 200.128 175.624C201.566 168.881 211.318 112.7 222.108 113.4C227.427 113.746 237.586 133.202 244.233 139.022C262.077 140.072 269.973 136.375 289.786 140.516Z"/><path fill="#2E2E32" d="M233.462 254.746C240.407 252.954 247.617 248.478 251.162 256.647C258.719 252.426 262.899 252.341 271.277 252.605C273.07 256.842 272.879 257.035 277.209 258.59C277.817 258.583 279.203 258.527 279.752 258.59L279.004 260.225C279.628 261.415 279.895 261.671 280.815 262.66L280.867 264.175L282.492 264.585C282.236 265.504 281.895 265.451 280.867 266.171C265.534 270.147 249.349 271.049 234.418 274.258C235.165 287.185 242.503 291.317 236.969 297.128C236.247 296.834 234.692 297.284 233.462 297.128C232.408 296.178 237.152 293.898 237.624 292.011C236.725 288.35 231.533 291.227 229.038 289.168C229.6 287.498 231.711 288.382 233.345 286.199L233.17 285.226C231.519 283.644 187.663 279.296 193.121 256.647L193.694 257.762L194.255 257.815L194.975 254.746C194.176 263.498 195.565 266.216 202.933 271.545C210.557 277.873 215.679 280.082 225.365 281.837C221.649 269.489 221.915 268.357 233.462 262.549L233.462 254.746ZM234.418 256.647C234.747 258.419 235.028 260.738 235.928 262.232L236.969 262.549C242.175 261.051 243.218 260.887 248.81 261.029C248.667 258.977 248.547 257.279 248.224 255.25L247.595 254.746C242.934 255.194 238.998 255.608 234.418 256.647Z"/><path fill="#2E2E32" d="M244.233 264.175C247.356 262.968 263.465 259.508 266.167 261.029C266.541 261.567 266.857 262.099 267.321 262.549C274.091 263.27 267.436 266.802 279.752 264.175L280.867 264.175L282.492 264.585C282.236 265.504 281.895 265.451 280.867 266.171C265.534 270.147 249.349 271.049 234.418 274.258L234.1 273.571L234.418 272.737C236.616 272.219 242.38 272.214 239.221 269.274C241.419 268.351 243.425 266.977 245.545 268.762L247.595 268.071C249.026 267.022 249.545 266.843 251.162 266.171C248.86 265.643 245.795 265.525 244.233 264.175Z"/><path fill="#67696D" d="M244.233 264.175C247.356 262.968 263.465 259.508 266.167 261.029C266.541 261.567 266.857 262.099 267.321 262.549L267.489 262.919C270.438 269.306 268.984 269.209 263.67 263.496L263.19 263.708C263.379 264.83 263.55 265.829 263.669 266.967L262.998 267.19L259.262 264.417L258.758 264.877L258.871 265.158L259.259 264.454C258.726 267.192 260.637 265.871 259.402 267.735L256.563 268.071C257.359 265.402 254.116 265.102 252.171 265.142L251.778 265.987L251.162 266.171C248.86 265.643 245.795 265.525 244.233 264.175Z"/><path fill="#4A4953" d="M251.162 266.171L251.778 265.987L252.171 265.142C254.116 265.102 257.359 265.402 256.563 268.071C252.813 269.233 250.534 270.818 247.595 268.071C249.026 267.022 249.545 266.843 251.162 266.171Z"/><path fill="#4C576B" d="M229.008 269.274C228.528 264.503 241.135 264.385 244.233 264.175C245.795 265.525 248.86 265.643 251.162 266.171C249.545 266.843 249.026 267.022 247.595 268.071L245.545 268.762C243.425 266.977 241.419 268.351 239.221 269.274C233.374 268.209 236.589 265.169 229.008 269.274Z"/><path fill="#4A4953" d="M229.008 269.274C236.589 265.169 233.374 268.209 239.221 269.274C242.38 272.214 236.616 272.219 234.418 272.737L234.026 271.493C228.106 270.51 223.661 274.738 229.008 269.274Z"/><path fill="#4C576B" d="M266.167 261.029C277.357 259.373 272.843 264.151 277.209 264.175L279.752 264.175C267.436 266.802 274.091 263.27 267.321 262.549C266.857 262.099 266.541 261.567 266.167 261.029Z"/><defs><linearGradient id="gradient_0" gradientUnits="userSpaceOnUse" x1="278.69943" y1="260.0563" x2="276.31339" y2="263.05618"><stop offset="0" stop-color="#43444C"/><stop offset="1" stop-color="#595D65"/></linearGradient></defs><path fill="url(#gradient_0)" d="M277.209 258.59C277.817 258.583 279.203 258.527 279.752 258.59L279.004 260.225C279.628 261.415 279.895 261.671 280.815 262.66L280.867 264.175L279.752 264.175L277.209 264.175C274.708 261.584 274.522 261.008 277.209 258.59Z"/><path fill="#4C576B" d="M225.365 274.258C232.036 275.018 232.087 274.759 233.462 281.837C232.005 281.435 229.119 281.186 227.514 280.999C226.527 278.393 226.07 276.94 225.365 274.258Z"/><path fill="#67696D" d="M262.503 258.59C259.625 259.024 253.767 260.328 251.324 258.918L251.677 258.201C255.347 256.144 258.454 255.609 262.503 254.746L262.503 258.59Z"/><path fill="#446ECB" d="M262.503 254.746C265.723 254.039 267.641 253.37 270.738 254.617L271.405 255.419C269.759 258.459 265.68 258.26 262.503 258.59L262.503 254.746Z"/><path fill="#2E2E32" d="M171.14 285.584C184.01 291.718 218.682 312.011 232.578 307.187L233.4 306.372C232.829 304.739 232.081 304.805 230.428 303.531C235.224 301.575 246.015 301.18 233.462 297.128C234.692 297.284 236.247 296.834 236.969 297.128C243.219 299.461 241.995 302.443 236.969 306.032C237.117 315.594 240.256 328.561 239.221 336.233L238.185 337.145C237.119 336.724 237.465 337.076 236.969 336.233L235.724 337.957C233.614 337.077 232.366 336.349 231.646 334.094C229.102 329.855 226.55 315.637 225.365 309.973C217.931 308.609 212.877 307.06 205.859 304.664C193.02 299.416 186.626 295.642 174.506 289.812C174.618 302.798 171.959 309.485 171.14 320.929C170.494 320.765 169.827 320.877 169.152 320.929C169.122 320.775 172.628 296.414 172.593 289.812C172.254 288.594 171.574 286.826 171.14 285.584Z"/><path fill="#4C576B" d="M227.514 309.973C229.836 310.004 232.452 310.318 234.387 309.159C236.421 312.111 237.676 331.309 236.969 336.233L235.724 337.957C233.614 337.077 232.366 336.349 231.646 334.094C229.102 329.855 226.55 315.637 225.365 309.973L227.514 309.973Z"/><path fill="#4A4953" d="M225.365 309.973L227.514 309.973C228.173 313.178 231.833 332.141 231.646 334.094C229.102 329.855 226.55 315.637 225.365 309.973Z"/><path fill="#EBA600" d="M157.92 258.59C161.783 256.947 165.503 254.701 169.152 252.605C168.879 254.784 168.512 256.473 169.152 258.59C167.488 267.357 167.461 277.273 171.14 285.584C171.574 286.826 172.254 288.594 172.593 289.812C167.416 288.288 164.68 287.857 161.338 283.54C157.721 276.989 157.901 265.933 157.92 258.59Z"/><path fill="#2E2E32" d="M320.06 271.545C326.267 264.285 331.698 257.397 334.508 248.056C334.876 246.833 335.929 243.041 336.799 242.56C336.762 259.442 312.396 292.968 291.717 280.019L291 279.171C289.491 278.872 288.984 279.298 287.661 280.019L285.019 278.935C295.667 269.672 291.873 293.904 320.06 271.545Z"/><path fill="#2E2E32" d="M283.191 277.591L285.019 277.591L285.019 278.935L287.661 280.019L287.661 281.837C289.495 282.968 291.858 284.332 293.554 285.584C290.939 284.937 287.502 284.243 285.019 283.54C286.801 284.372 286.312 285.684 287.661 287.304L285.019 287.304L283.191 277.591Z"/><path fill="#242020" d="M193.121 256.647C193.642 249.482 194.053 247.175 197.816 241.026C196.107 246.452 195.064 249.114 194.975 254.746L194.255 257.815L193.694 257.762L193.121 256.647Z"/><path fill="#CCCACE" d="M287.661 280.019C288.984 279.298 289.491 278.872 291 279.171L291.717 280.019L293.24 282.343L292.705 282.909C291.266 282.59 289.05 282.031 287.661 281.837L287.661 280.019Z"/><path fill="#FED4D4" d="M213.127 150.078C209.129 140.536 223.737 110.307 231.646 143.265C229.969 145.047 215.24 151.446 213.127 150.078Z"/><path fill="#3B3736" d="M213.127 150.078C209.129 140.536 223.737 110.307 231.646 143.265C219.028 121.006 215.885 127.21 213.127 150.078Z"/><path fill="#FED4D4" d="M300.633 145.224C299.015 140.926 305.349 128.85 310.017 127.004L310.932 127.421C314.934 130.21 318.81 142.572 317.558 147.034L316.912 147.788C314.086 147.956 303.433 146.069 300.633 145.224Z"/><path fill="#242020" d="M300.633 145.224C299.015 140.926 305.349 128.85 310.017 127.004L310.932 127.421C301.868 133.966 303.944 138.388 300.633 145.224Z"/><path fill="#4A4953" d="M239.237 167.804C244.004 166.845 248.666 169.86 249.748 174.6C250.83 179.34 247.937 184.079 243.226 185.283C240.069 186.09 236.722 185.121 234.485 182.751C232.248 180.381 231.472 176.984 232.46 173.878C233.447 170.772 236.042 168.447 239.237 167.804Z"/><path fill="#4A4953" d="M293.583 167.832C298.196 166.995 302.641 169.971 303.623 174.556C304.605 179.14 301.769 183.676 297.218 184.801C294.144 185.561 290.9 184.588 288.753 182.26C286.606 179.933 285.897 176.621 286.902 173.618C287.907 170.615 290.468 168.398 293.583 167.832Z"/><path fill="#FDFDF9" d="M290.189 171.768C291.259 171.641 292.258 172.327 292.522 173.372C292.786 174.417 292.234 175.496 291.232 175.892C290.457 176.198 289.576 176.029 288.971 175.457C288.365 174.886 288.145 174.016 288.406 173.225C288.667 172.435 289.362 171.867 290.189 171.768Z"/><path fill="#4A4953" d="M264.028 197.678C264.89 192.526 260.332 193.207 259.032 189.145L259.247 187.816C269.174 183.526 278.828 186.269 266.167 195.505C273.519 208.161 274.172 197.866 281.008 200.619L281.086 201.315C275.706 206.475 269.871 206.044 266.319 199.258L266.167 199.245L264.028 197.678Z"/><path fill="#FDFDF9" d="M277.209 143.265C283.499 145.798 279.433 157.589 277.209 161.86C269.75 162.945 274.97 146.147 277.209 143.265Z"/><path fill="#FDFDF9" d="M266.167 145.224C272.036 148.751 269.771 160.369 267.321 165.543C260.679 162.769 262.242 150.109 266.167 145.224Z"/><path fill="#FDFDF9" d="M258.995 145.224C263.254 147.079 258.388 158.86 256.563 161.86C251.852 156.943 254.038 149.264 258.995 145.224Z"/><path fill="#2E2E32" d="M264.028 197.678L266.167 199.245C261.378 206.701 249.106 206.452 250.614 200.734C253.935 199.909 257.815 207.146 264.028 197.678Z"/><path fill="#242020" d="M128.703 195.505C140.474 200.823 151.847 207.697 164.76 213.239C161.335 218.011 158.657 224.278 155.641 228.096C153.423 227.375 150.285 225.783 148.266 226.11C146.874 232.004 145.822 234.301 144.6 241.026C163.047 259.552 150.318 322.581 111.689 312.792C110.085 317.236 106.705 326.627 100.789 324.432C94.8948 322.245 64.492 311.658 67.9842 302.483C72.5325 290.534 108.29 227.183 111.432 225.136L111.678 224.979C114.007 223.459 118.059 222.588 120.834 221.844C122.126 218.205 122.922 216.645 124.786 213.239L120.834 209.476C123.322 203.84 125.042 200.454 128.703 195.505ZM120.834 295.55C120.399 296.461 115.628 303.957 118.354 304.181C138.872 305.866 147.835 268.651 142.356 256.226L141.543 256.647C141.092 258.321 121.841 294.551 120.834 295.55ZM123.413 249.716C125.053 249.236 126.002 247.526 125.54 245.881C125.079 244.236 123.379 243.269 121.729 243.712C120.645 244.004 119.802 244.855 119.52 245.941C119.238 247.027 119.562 248.181 120.368 248.962C121.173 249.743 122.336 250.031 123.413 249.716Z"/><defs><linearGradient id="gradient_1" gradientUnits="userSpaceOnUse" x1="137.13536" y1="262.46347" x2="95.652481" y2="246.11884"><stop offset="0" stop-color="#484749"/><stop offset="1" stop-color="#727072"/></linearGradient></defs><path fill="url(#gradient_1)" d="M121.839 221.844C123.564 217.819 124.742 212.551 129.912 215.743C132.657 217.437 145.817 224.953 148.266 226.11C146.874 232.004 145.822 234.301 144.6 241.026L144.198 238.594L143.617 238.296C141.731 240.051 140.114 253.64 140.759 256.241L141.543 256.647C141.092 258.321 121.841 294.551 120.834 295.55L120.054 295.149C118.739 296.069 118.069 297.637 117.251 299.088C106.936 294.645 92.8428 286.366 81.3369 280.999C86.9005 269.112 104.433 237.143 111.689 228.096C115.826 224.198 122.919 223.669 128.451 223.518C135.977 223.312 136.352 231.132 141.394 236.407L141.543 236.561C139.483 230.606 138.106 226.16 133.222 221.844C129.449 221.711 125.618 221.797 121.839 221.844ZM123.413 249.716C125.053 249.236 126.002 247.526 125.54 245.881C125.079 244.236 123.379 243.269 121.729 243.712C120.645 244.004 119.802 244.855 119.52 245.941C119.238 247.027 119.562 248.181 120.368 248.962C121.173 249.743 122.336 250.031 123.413 249.716Z"/><path fill="#242020" d="M102.224 258.59C104.824 259.445 121.927 269.699 124.786 271.545C120.427 277.21 117.581 283.785 113.7 289.812C107.793 287.458 96.3915 280.825 90.3661 277.591C93.8995 271.458 97.9038 264.038 102.224 258.59Z"/><path fill="#67696D" d="M102.224 261.029C108.522 264.396 115.536 268.454 121.839 271.545C120.323 274.36 118.808 277.231 117.251 280.019L113.7 287.304C106.464 285.116 100.074 280.997 93.1845 277.591C94.0595 275.508 95.0401 272.969 96.7591 271.545C98.6725 267.232 99.7167 264.984 102.224 261.029Z"/><path fill="#3B3736" d="M93.1845 277.591C94.0595 275.508 95.0401 272.969 96.7591 271.545C103.991 273.902 110.271 277.325 117.251 280.019L113.7 287.304C106.464 285.116 100.074 280.997 93.1845 277.591Z"/><path fill="#FDFDF9" d="M118.909 254.606C115.191 254.506 115.917 252.669 113.747 252.699L113.859 253.306L115.482 254.389L115.37 254.83L113.426 253.959C112.764 254.233 112.755 254.177 112.345 254.753L112.499 252.724C112.893 247.72 108.881 233.083 122.59 234.218C143.824 235.975 132.151 260.321 122.028 255.452C120.946 255.358 119.89 255.071 118.909 254.606ZM123.413 249.716C125.053 249.236 126.002 247.526 125.54 245.881C125.079 244.236 123.379 243.269 121.729 243.712C120.645 244.004 119.802 244.855 119.52 245.941C119.238 247.027 119.562 248.181 120.368 248.962C121.173 249.743 122.336 250.031 123.413 249.716Z"/><path fill="#2E2E32" d="M118.909 254.606C115.191 254.506 115.917 252.669 113.747 252.699L113.859 253.306L115.482 254.389L115.37 254.83L113.426 253.959C112.764 254.233 112.755 254.177 112.345 254.753L112.499 252.724C112.893 247.72 108.881 233.083 122.59 234.218C143.824 235.975 132.151 260.321 122.028 255.452C126.741 255.863 130.987 252.608 131.815 247.951C132.643 243.293 129.778 238.774 125.213 237.536C120.647 236.298 115.891 238.75 114.253 243.188C112.614 247.626 114.635 252.58 118.909 254.606Z"/><path fill="#2E2E32" d="M121.191 238.728C125.354 237.836 129.464 240.443 130.433 244.588C131.402 248.734 128.873 252.892 124.746 253.938C122.007 254.632 119.106 253.794 117.161 251.744C115.216 249.695 114.528 246.755 115.364 244.056C116.2 241.357 118.428 239.319 121.191 238.728ZM123.413 249.716C125.053 249.236 126.002 247.526 125.54 245.881C125.079 244.236 123.379 243.269 121.729 243.712C120.645 244.004 119.802 244.855 119.52 245.941C119.238 247.027 119.562 248.181 120.368 248.962C121.173 249.743 122.336 250.031 123.413 249.716Z"/><path fill="#FE744F" d="M81.3369 281.837C87.9895 286.69 108.791 296.884 117.251 301.386C112.288 308.072 108.78 315.617 105.033 323.07C98.7078 323.835 71.8105 309.835 69.7188 305.542C69.2126 299.678 77.8605 287.105 81.3369 281.837Z"/><path fill="#FE744F" d="M144.6 242.186C147.776 245.718 149.532 254.521 150.217 259.143C153.971 284.461 144.377 308.864 117.251 312.792C111.709 311.921 113.181 310.287 115.67 306.032C142.864 306.703 151.334 269.601 141.543 252.605C142.41 249.272 143.614 245.526 144.6 242.186Z"/><path fill="#67696D" d="M128.703 199.245C133.531 199.881 156.289 211.706 161.338 214.662C159.112 218.491 157.709 222.22 155.641 226.11C148.849 224.011 129.444 213.299 121.839 209.476C124.219 206.148 126.457 202.669 128.703 199.245Z"/><path fill="#242020" d="M138.393 209.476C140.645 209.732 149.067 212.909 150.337 214.662C147.276 214.486 141.057 212.236 138.372 210.691L138.393 209.476Z"/><path fill="#3B3736" d="M578.466 188.532C580.437 188.434 583.814 188.165 585.663 188.343L586.113 188.794L586.215 188.417L586.865 188.679C583.371 189.83 581.864 189.541 578.466 189.99L578.466 188.532Z"/></svg>